<!--?xml version="1.0" encoding="UTF-8"?-->
<svg id="Layer_1" xmlns="http://www.w3.org/2000/svg" version="1.1" viewBox="0 0 273.6 170.4" width="273.6000061035156" height="170.39999389648438">
  <!-- Generator: Adobe Illustrator 29.1.0, SVG Export Plug-In . SVG Version: 2.1.0 Build 142)  -->
  <defs>
    <style>
      .st0 {
        fill: none;
        stroke: #fff;
        stroke-miterlimit: 10;
        stroke-width: .002em;
      }
    </style>
  </defs>
  <path class="st0 svg-elem-1" d="M271.6,124.6c.4.2.8.3,1.2.5-26.6-10.4-53.2-20.9-79.7-31.3-4.7-1.9-16.8-4.2-19.4-8.8-4.8-8.3,9.2-11.1,14.4-13.2,13.3-5.2,26.5-10.4,39.8-15.6,15-5.9,30-11.8,44.9-17.6-26.3,10.3-52.6,20.7-78.9,31-4.9,1.9-16.1,4-19.4,8.1-6.8,8.4,7.2,11.6,12.7,13.8,13.2,5.2,26.3,10.3,39.5,15.5,14.9,5.9,29.9,11.7,44.8,17.6h0ZM272.9,169.2v.2h0v-44.4h0v44.1h0ZM178.7,169.4h-1.3,95.5-94.2ZM90.2,2.5c-.2-.4-.4-.8-.6-1.2,11.3,21.7,22.7,43.3,34,65,11.3,21.7,23,44,34.5,66,6.5,12.4,12.9,24.7,19.4,37.1-11.3-21.7-22.7-43.4-34-65.1-11.4-21.7-22.7-43.4-34.1-65.1-6.4-12.2-12.8-24.4-19.2-36.7h0ZM131.2,1.4h1.3-42.9,41.6ZM163.4,2.5c.1-.4.3-.8.4-1.2-2.1,6.3-8.2,36.1-15.3,36.6s-13.9-30.4-16-36.6h0c2.1,6.3,8.3,36.1,15.3,36.6s13.6-29.3,15.6-35.4h0ZM272.9,1.4v37.2h0V1.4h0ZM271.5,1.4h1.3-109,107.7ZM89.6,1.4l.5.3-.5-.3c11.3,21.7,22.7,43.3,34,65,11.5,22,23,44,34.5,66,6.5,12.4,12.9,24.7,19.4,37.1h95.5v-44.4c-26.6-10.4-53.2-20.9-79.7-31.3-4.7-1.9-16.8-4.2-19.4-8.8-4.8-8.3,9.2-11.1,14.4-13.2,13.3-5.2,26.5-10.4,39.8-15.6,15-5.9,30-11.8,44.9-17.6V1.4h-109c-2.1,6.3-8.2,36.1-15.3,36.6s-13.9-30.4-16-36.6c0,0-43.1,0-43.1,0ZM90.1,1.7l-.5-.3h42.9c2.1,6.2,8.7,37.1,16,36.6s13.2-30.3,15.3-36.6h109v37.2c-26.6,10.5-53.2,20.9-79.8,31.3-4.7,1.9-16.7,4.2-19.3,8.7-4.8,8.3,9.2,11.1,14.4,13.2,13.3,5.2,26.5,10.4,39.8,15.6,14.9,5.9,29.9,11.7,44.9,17.6v44.4h-95.5l-34.5-66c-11.4-21.8-22.8-43.6-34.2-65.4-6.4-12.2-12.8-24.4-19.2-36.7l.5.3h.2ZM175.1,120.2c-.2-2.2.3-4.4,1.4-6.3.9-.7,1.8-1.3,2.7-1.9,1.1,0,2.2-.3,3.2-.7,17.3,0,47.1,9.2,57.1,24.3.4,1.1.9,2.2,1.4,3.3,0,1.1,0,2.3.1,3.4-.6,1.2-1.2,2.4-1.9,3.5-9.4,7.9-26.8,8.4-38.4,6.1-14.9-3-24.5-17.1-25.7-31.8h0ZM153.1,62.1v-3.1c.4-.9.8-1.8,1.2-2.8.8-.8,1.5-1.7,2-2.6.9-.7,1.6-1.6,2.2-2.5.6-.6,1.2-1.1,1.8-1.7l.5-.8c8.6-9.7,12.1-24,25.8-28.2,10.5-3.3,34-3.9,41.2,6.3,0,1.1.1,2.3.2,3.4-.7,1-1.2,2.1-1.7,3.3-1,1-2,2-3,3.1-15.3,12.5-35.2,16.6-52.9,24.3-1.5.4-2.9,1-4.2,1.9-1.5.5-3,1.1-4.4,2-1.3.3-2.6.6-4,1-1-.3-2-.5-2.9-.8-.6-.8-1.2-1.7-1.8-2.6h0s0-.2,0-.2ZM139.6,63.5c-1-3.3-1.6-6.9-.2-10.2l.8-1.2c4.1-3.9,10.4-4.5,15-7.6.5-.5,1-1,1.6-1.3,5.7-5.3,8-12.7,12.5-18.9,5.8-8,13.3-10.4,22.8-11.3,14.6-1.4,40.5-2.6,52.1,8.2.5,1.1,1,2.3,1.5,3.5-.1,1.1-.3,2.2-.5,3.4-.6,1.1-1.3,2.1-1.8,3.2-10.2,11.1-26.4,17.1-40.1,22.8-14.3,6-33.5,9.8-41.5,24.5-.3.7-.6,1.4-.9,2.1h0l-1.3,2.1v.8l-1.7,1.4-.3.9h-1.3c-.8-.5-1.6-.9-2.5-1-.6-.6-1.4-1.1-2.1-1.5-5.7-5.2-10.1-12.5-12.2-19.9h0ZM164.1,111.8c-1.2-3.8-1.1-7.5-.7-11.4,1.1-.3,2.1-.8,3-1.5l1.2.5c.8,0,1.6.2,2.4.3h.5l1.7.7,2.4.3c23.5,7.5,53.5,12.5,72.5,29.6,17,15.4-2.7,25.4-17.5,27.1-12.4,1.4-29.6,3.1-40.9-2.9-13.9-7.4-21.1-28.5-24.4-42.9h0l-.2.2h0ZM152.8,98.7c-6.9-13.8-28.9-37.8-21.3-54.4,1-.5,2-.9,3-1.2l.4.2c.8,0,1.7,0,2.5.2h.4l1.7.5h1.4l.9.3h2.3c2.2,0,4.3-.3,6.4-.9.6-.3,1.2-.7,1.8-.9.5-.4,1.1-.7,1.7-.9.4-.5.9-.9,1.4-1.3,12.8-11.7,10.2-27.9,30.9-30.5,15.1-1.9,31.6-.8,46.7.9,7.9.9,20.8,2,23.1,11.5v3.3c-.3,1.1-.6,2.2-1,3.3-6.4,11.3-23.3,16.9-34.6,21.9s-24,9.7-35.9,14.7c-6.9,2.9-14.1,5.8-17.5,13-.1.7-.3,1.3-.6,1.9v1.5l-.2.3v.3l-.3,1.6c.2.6.3,1.2.3,1.8.7,2.6,2.2,5,4.2,6.8.5.4,1,.9,1.5,1.3.6.3,1.2.7,1.7,1.1,13.6,6.3,28.5,10.1,42.4,15.7,13,5.2,37.4,11.8,43.1,25.9,9.6,23.9-23.4,24.8-38.1,25.2-18.3.5-35.7,1.5-46.4-15.5-9.4-14.9-14.5-31.8-21.9-47.7h0ZM153.3,108.6c-7.4-15.8-17.1-30.4-24.1-46.5h0c-4.8-11.4-8.7-23.7-10.7-35.9.5-1.3,1.1-2.7,1.7-4,1.6.1,3.2.5,4.6,1.2,4.8,5,8.4,10.8,13.7,15.4l1,.4.6.6c.6.2,1.2.5,1.7.9l.9.2.9.5c.7,0,1.4,0,2.1.2,1.3,0,2.7,0,4-.3.6-.3,1.2-.5,1.8-.7.5-.4,1-.8,1.5-1.1.4-.4.9-.8,1.4-1.1,5.7-7.2,6.9-17.2,12.8-24.1,6.2-7.3,16.1-7.3,25.1-7.6,14.2-.5,28.6,0,42.8,1,8.1.6,20.6.5,25.4,8.3,5.6,9.2-1.7,17.8-9,22.5-12.6,7.9-27.3,13.2-41,18.8-11.6,4.7-37.1,9.6-41.7,22.6v1.4l-.2.4v1.8c0,.6.3,1.2.4,1.7.7,1.9,1.8,3.6,3.2,4.9.5.4,1,.9,1.5,1.3.6.3,1.2.7,1.7,1.1,14.3,6.6,29.6,11.2,44.3,17.1,12.4,4.9,32.3,9.9,40.9,20.8,6.1,7.7,6,23.3-2.7,28.9-6.9,4.5-18.5,4-26.5,4.3-16.2.7-42.8,5.1-54.2-8.9-10.7-13.2-16.9-31.1-24-46.3h0v.2h.1ZM152.9,112.9c-7.7-15.9-16.8-31.1-24.4-47-6.7-14-17.8-32.9-18.5-48.6.4-1.3,1.1-2.6,1.8-3.7,1-.5,1.9-1,2.8-1.6,16.7-4.7,17.5,18.6,27.1,26.1h.3l1.1,1.2,1.9.5h0c.6.2,1.2.4,1.8.5.9,0,1.7,0,2.6-.2.6-.3,1.1-.5,1.8-.6l.4-.4,1.1-.5c.4-.5.8-1,1.3-1.4,4.8-6.8,6.1-15.4,10.4-22.6,5.4-9.1,14.4-9.2,24.1-9.6,16.8-.6,33.8-.2,50.6.7,8.4.5,21.3-.2,25.7,8.5,4.6,9,.3,18.9-7.4,24-12.7,8.4-28.4,13.2-42.4,19-10.1,4.1-41,10.6-44.3,22.4-.2.6-.4,1.2-.6,1.8l.3,1.7h0c0,.7.2,1.3.2,1.9.6,1.5,1.5,2.8,2.7,3.9.6.3,1.1.7,1.7,1.1,12.6,8.1,29.5,11.9,43.4,17.4s34.5,10.1,44.5,20.9c6.4,6.9,7,25,.3,32.1-12.5,10.1-43.6,5.8-58.8,5.4-9.5-.2-20.1.6-27-7-5.4-5.9-8.9-14.4-12.5-21.5-4.2-8.1-8.1-16.3-12.1-24.4h0ZM148.8,108.3c-12.1-23.9-24.5-47.6-36-71.9-3.4-7.2-7.9-14.9-8-23l.2-.9,1.6-2.6c5.5-3.9,16.4-4.2,21.7.4,6.6,7.7,8.3,18.6,14.1,26.9.6.3,1.1.7,1.5,1.1h.5l1.1,1c1.3.2,2.5.2,3.8,0,.5-.2,1.1-.4,1.6-.5.4-.4.9-.8,1.4-1.2.4-.5.9-.9,1.3-1.3,5.4-9.1,6.2-21.1,13.5-29.1.9-.5,1.7-1,2.6-1.5,14.3-4.7,32.8-2.2,47.7-2,14,.2,34.2-2.6,47,4.1.8.8,1.6,1.6,2.3,2.5,10.4,22-9,30.6-25.4,37.6-14.5,6.1-29.1,11.8-43.7,17.6-7.6,3-15.5,5.7-22.7,9.6-.5.5-1,.9-1.5,1.4-.7.9-1.4,1.9-1.8,3,0,.6-.1,1.2-.3,1.8v.6c.1,0,0,1.2,0,1.2.6,1.8,1.6,3.4,2.9,4.8.6.3,1.1.7,1.6,1.2,14.7,7,30.5,12,45.7,18,12.5,5,36.3,9.9,44.8,20.8,5.6,7.1,4.9,25.7.4,33.3-.7.8-1.5,1.5-2.4,2.2-12.4,5.6-30,3.4-43.4,3.5-12.1,0-28.4,2.3-39.9-2.4-7.9-5.4-12.4-17.6-16.7-25.9-5.2-10.1-10.3-20.3-15.4-30.5h0v.2h-.1ZM147.1,107.5c-12.6-24.6-25.5-48.9-37.7-73.7-3.5-7.1-8.2-15.1-8.7-23.2.6-1.1,1.1-2.2,1.7-3.2h0c.9-.5,1.8-.9,2.7-1.3,6.9-1.8,15.3-2.2,22.2-.2.8.6,1.6,1.2,2.4,1.8,6.4,8.6,7.1,20,13.1,28.7l.6.4.6.7c.6.3,1.2.7,1.7,1.2,1.1.2,2.2.2,3.3,0,.5-.2,1-.4,1.4-.5.4-.3.9-.6,1.3-.9.4-.6.9-1.1,1.3-1.7,4.2-9,6.4-18.8,11-27.6.7-.8,1.4-1.7,2-2.5.9-.4,1.8-.9,2.7-1.3,15.2-3.2,32.2-1.5,47.7-1.4s33.6-1.9,48.4,2.5c.9.5,1.8,1.1,2.6,1.7,4.2,6.6,3.8,20.1,1.4,27.3-5.7,9.8-27.1,14.5-37.2,18.5-12.3,5-24.7,9.8-37,14.8-6.6,2.6-13.4,4.8-19.7,8.2-.5.4-1.1.9-1.6,1.3-.5.7-1,1.5-1.4,2.3,0,.7-.1,1.3-.4,1.9v.6c.1,0,0,1.3,0,1.3.6,1.6,1.4,3.1,2.6,4.3l1.8.9c14.9,7.3,31.2,12.4,46.7,18.5l22.5,9c6.6,2.7,19.1,5.8,23.3,11.8,4.9,7.2,2.7,25.4.7,33.4-.6,1.1-1.2,2.1-1.9,3.2-.8.5-1.7,1-2.6,1.4-12.8,3.4-27.7,2-40.9,2.1s-30.9,2.5-43.9-1.7c-.8-.6-1.6-1.2-2.4-1.9-12.9-16.7-21.1-38.2-30.6-56.9h0l.2.2h0ZM148.8,112.6c-14-27-28.4-53.8-41.9-81.1-3.5-7-8.7-15-9.5-22.9.5-1,.9-2.1,1.4-3.2h0c.9-.4,1.8-.8,2.6-1.1,8.4-1.7,18.4-2.2,26.9-.4.9.5,1.7,1.1,2.5,1.7,5.7,9.2,7.9,20.5,12.4,30.4.3.3.6.5.9.8,2.8,2.7,6.7,1.9,8.8-1.2,3.2-9.6,6.3-19.7,10.6-28.9.7-.8,1.3-1.7,1.9-2.6.9-.3,1.9-.6,2.8-1,24.6-2.9,50.7-.9,75.5-.5,7.2,0,14.6,0,21.8,1.1.9.4,1.8.7,2.8.9.8.9,1.5,1.8,2.1,2.8,1.6,8.4,1.5,17.7.6,26.2-.3,1.3-.8,2.5-1.6,3.5-10.1,9-28.4,13-40.9,18-13.8,5.5-27.7,10.9-41.6,16.4-4.7,1.9-13.5,3.4-14.6,9.2l-.4.9c.3,2.2,1.2,4.1,2.8,5.5,22.5,12.5,49.6,19.7,73.5,29.4,7.1,2.8,14.4,5.4,20.9,9.4l1.7,2.4c2.1,10.9,2.1,25.3-.5,36-.7.8-1.5,1.6-2.3,2.4-13.4,4.1-30.3,1.8-44.2,1.9-14.2,0-30.6,2.1-44.5-1.1-.8-.7-1.5-1.3-2.3-2-11.1-16.5-19.2-35.3-28.3-53h0ZM149.2,114.7c-14.5-27.2-28.4-54.7-42.7-82.1-4-7.7-8.3-15.3-11.3-23.5,0-.9-.2-1.8-.5-2.7l.9-2.5c8.7-4.1,24.2-2.5,33.6-1.4.9.5,1.7,1,2.6,1.4,4.8,10.2,8.3,21.3,11.8,32,2.6,3.2,6.9,3,9.1-.5,2.9-10.2,6.8-20.2,10.4-30.1.6-.8,1.2-1.7,1.7-2.6,15-4.2,34.8-1.1,50.3-1,17.5,0,36.4-1.8,53.8,1,.8.6,1.5,1.3,2.2,2,2,9.8,1.9,21.9.3,31.7l-1.1,1.6-.7.6c-25.9,12.5-53.8,21.8-80.5,32.3-4.9,1.9-16,3.8-16.8,10.1l-.3.6c.7,9.3,25.9,14.5,33.3,17.4,13.8,5.4,27.6,10.8,41.4,16.3,8,3.2,17.6,5.7,24.5,10.9,2.6,11.2,2.8,29.3-.4,40.5-.9.4-1.8,1-2.6,1.6-14.6,1.9-29.9.8-44.7.8s-30.3,1.1-45-.6l-2.1-1.8c-10.3-16.5-18.6-34.7-27.5-52h.3ZM149.2,114.9c-14-25.4-27.1-51.5-40.5-77.3-3.9-7.5-8.4-15.1-11.6-22.9-.6-.7-1-1.5-1.2-2.4-.7-1.3-1.4-2.6-2.1-3.9l-.2-1.1c-.3-.5-.6-1-1-1.5l-.2-1.2-.3-.5v-1l1.2-.6.4-.5h1c11.6-1.2,23.9-1.1,35.5-.4h.2c.7,0,1.3.2,1.9.5,5.3,10.5,7.3,22.7,11.8,33.6,2.5,3.1,6.6,2.7,8.6-.6,3.4-10.5,7.6-20.9,10.6-31.5.3-.6.6-1.1,1-1.7h0c0-.1.2-.3.2-.3.4,0,.9-.2,1.3-.2h1.6c26.7-.8,53.5-.1,80.2,0,7.6,0,15.1.2,22.6.3.7.2,1.4.5,2,.9,0,.9.2,1.8.5,2.7-.2,10.1,0,20.4,0,30.5-.2.7-.4,1.5-.4,2.2-.6.2-1.1.6-1.5,1-25.6,9.9-51,20.3-76.6,30.2-5.6,2.2-20.8,5.1-21.4,12.1v.3c.3,8.9,29.7,15.8,37.4,18.8,13.7,5.3,27.3,10.8,41,16.1,7,2.8,14.6,5.2,21.2,8.8,0,.6.1,1.1.3,1.6.1,13.1-.2,26.2,0,39.2-.3.7-.5,1.4-.6,2.1-.8.1-1.5.4-2.1.7h-.4c-.6,0-1.3,0-1.9-.1-23.3,1.2-46.8.4-70.1.4s-13.1.3-19.4-.3h0c-.5-.4-.9-.9-1.3-1.5v-.2c-9.9-16.9-19.1-34.7-27.5-52.4h-.2ZM174.9,119.7c1.3,14.7,10.5,29,25.5,32.1,11.6,2.4,29.1,1.9,38.6-6,.7-1.1,1.3-2.3,1.9-3.5,0-1.1,0-2.3-.1-3.4-.5-1.1-1-2.2-1.4-3.3-10.1-15-39.8-24.4-57-24.3-1.1.3-2.1.6-3.2.7-.9.6-1.9,1.2-2.7,1.9-1,1.8-1.5,3.8-1.5,5.8,0,0-.1,0-.1,0ZM153,61.8v.3c.7.9,1.3,1.8,1.9,2.6,1,.3,1.9.6,2.9.8,1.3-.3,2.6-.7,3.9-1,1.4-.8,2.8-1.5,4.4-2,1.3-.8,2.7-1.5,4.1-1.9,17.6-7.7,37.5-11.7,52.8-24.2.9-1.1,1.9-2.1,2.9-3.1.5-1.1,1-2.2,1.7-3.2,0-1.1-.1-2.3-.2-3.4-7.2-10.1-30.5-9.6-41.1-6.3-13.6,4.3-17.1,18.5-25.7,28.2l-.5.8c-.6.5-1.2,1.1-1.8,1.6-.6,1-1.4,1.8-2.2,2.5-.5,1-1.2,1.8-2,2.6-.3.9-.7,1.9-1.1,2.8v2.8h0ZM139.1,61.8c2,8,6.5,16,12.7,21.6.7.4,1.4,1,2.1,1.5.9.2,1.7.5,2.5.9h1.3l.3-.8,1.6-1.4v-.8l1.4-2h0c.4-.8.7-1.5.9-2.2,7.9-14.7,27.1-18.5,41.4-24.4,13.6-5.7,29.8-11.6,40-22.7.6-1.1,1.2-2.2,1.8-3.2.2-1.1.4-2.2.5-3.4-.5-1.2-1-2.4-1.5-3.5-11.6-10.8-37.4-9.6-52-8.2-9.4.9-16.9,3.3-22.7,11.2-4.5,6.2-6.8,13.5-12.5,18.8-.6.4-1.1.8-1.6,1.3-4.6,3.1-11,3.8-15,7.6l-.8,1.2c-1.2,2.6-1.1,5.7-.3,8.4h-.1ZM163.8,110.9c3.2,13.6,9,31.1,20,40.5,10.3,8.8,27.2,7.4,39.8,6.5,12-.9,38.8-5.1,27.1-23.3-6.9-10.7-24-16.2-35.2-20.7-13.5-5.5-27.4-8.8-41.2-13.2l-2.4-.3-1.7-.7h-.5c-.8,0-1.6-.2-2.4-.3l-1.2-.5c-.9.6-1.9,1.1-3,1.5-.3,3.6-.5,7.1.5,10.6h.2,0ZM152.3,97.9c7,14,11.6,29.1,19.1,42.8,10.3,18.8,22.7,21.1,43.1,21.1s44.8,2.2,45.7-17.6c.9-18.2-25.5-25.9-39-31.5-15.6-6.4-32.3-10.7-47.6-17.7-.5-.4-1.1-.8-1.7-1.1-.5-.5-1-.9-1.5-1.3-2-1.8-3.5-4.2-4.2-6.8,0-.6-.1-1.2-.3-1.8l.3-1.6v-2.1c.4-.6.6-1.2.7-1.9,5.4-11.3,22.1-14.9,32.8-19.1,12.1-4.8,24.4-9.8,36-15.8,6.9-3.6,15.1-7.6,19-14.6.4-1.1.7-2.2,1-3.3v-3.3c-3.4-14.1-31.2-12.3-42.2-12.8-14.4-.5-35.7-3.5-45.4,9.4-5,6.6-6.7,15.8-12.9,21.5-.5.4-1,.8-1.4,1.3-.6.2-1.2.5-1.7.9-.6.3-1.2.6-1.8.9-2.1.6-4.2.9-6.4.9s-1.6-.2-2.3,0l-.9-.3h-1.4l-1.7-.5h-2.9l-.4-.2c-1,.3-2,.8-3,1.2-7.5,16.5,14.1,39.9,20.9,53.5h0v-.2ZM153,108c6.4,13.7,12.3,28,20.3,40.9,11.2,18.1,30.7,15.5,49.8,15,18-.4,48.2.2,40.7-26.9-3.9-14.2-26-20-38.1-25-16.6-6.8-34-11.9-50.3-19.4-.5-.5-1.1-.8-1.7-1.1-.5-.4-1-.9-1.4-1.3-1.5-1.4-2.6-3-3.2-4.9-.1-.6-.3-1.2-.5-1.7l.2-1.4v-2.2c4.3-12.1,26-16.2,36.7-20.6,13.9-5.6,28-11.1,41.3-18.1,7.4-3.9,15.6-8.8,15.4-18.3-.2-11.2-10.8-13.3-19.9-14.4-14.1-1.7-28.6-1.8-42.8-1.8s-22.1-1.1-29.7,5.1c-8,6.5-9,18.9-15.3,26.8-.5.3-1,.7-1.4,1.1-.5.3-1.1.7-1.5,1.1-.6,0-1.2.4-1.8.7-1.3.2-2.6.3-4,.3-.7-.2-1.4-.2-2.1-.2l-.9-.5-.9-.2c-.5-.4-1.1-.7-1.7-.9l-.6-.6-1-.4c-5.2-4.6-8.8-10.4-13.6-15.4-1.5-.6-3-1-4.6-1.2-.6,1.3-1.2,2.6-1.7,4,5,30.2,21.7,54.5,34.4,81.7h0v-.2h-.1ZM152,111.2c7.2,14.8,13.7,30.8,23.1,44.3,10.7,15.4,37.9,10.5,54.6,10.1,9.9-.2,25.2,1.3,33.3-5.3,5.6-6.1,6.1-21.9,2.1-28.9-3.8-6.9-13.8-10.2-20.6-13.2-15.3-6.8-30.9-12.6-46.5-18.6-7.6-2.9-16.3-5.1-23.2-9.5-.5-.4-1.1-.7-1.7-1.1-1.2-1.1-2.1-2.4-2.7-3.9,0-.6-.1-1.2-.2-1.8h0l-.3-1.8c.2-.6.4-1.2.6-1.8,3.1-10.9,28.8-16,38.1-19.8,14.7-5.9,29.9-11.6,43.9-18.9,8.4-4.4,14-9.3,13.4-19.6-.7-11.9-9.2-13.9-19.5-15-16.5-1.6-33.4-1.5-50-1.4-9.5,0-23.1-1.4-30,6.4-6.3,7.1-7,18.1-12.5,25.8-.5.4-.9.9-1.3,1.4l-1.1.5-.4.4c-.6,0-1.2.3-1.8.6-.9,0-1.7.2-2.6.2-.6-.2-1.2-.4-1.8-.5h0l-1.9-.5-1.1-1.1h-.3c-9.7-7.6-10.2-30.8-27-26.2-.9.5-1.9,1.1-2.8,1.6-.7,1.1-1.3,2.4-1.8,3.7.6,15.3,11.4,33.7,17.9,47.4,7.5,15.7,16.5,30.7,24.1,46.4h0ZM148.2,107.2c5.3,10.2,10.3,20.5,15.6,30.8,4.4,8.5,9,21.1,17.1,26.6,11.5,4.6,27.7,2.4,39.9,2.4s30.9,2.1,43.3-3.5c.8-.7,1.6-1.4,2.4-2.2,4-6.9,4.8-22.5,1.5-29.9s-13.8-10.6-20.9-13.7c-14.9-6.3-29.9-12.3-45-18-8.8-3.4-17.9-6.4-26.4-10.5-.5-.5-1-.9-1.6-1.2-1.3-1.4-2.3-3-2.9-4.8v-1.2c.1,0,0-.6,0-.6.2-.6.3-1.2.3-1.8.5-1.1,1.1-2.1,1.8-3,.5-.4,1.1-.9,1.5-1.4,27.1-14.3,59.3-19.7,85.4-36,9.3-5.8,11.1-18.8,6.4-28.7-.7-.9-1.4-1.8-2.3-2.5-12.6-6.8-33-4-46.9-4.1-14.9-.2-33.3-2.6-47.6,2-.9.5-1.7,1-2.6,1.5-7.2,8-8.1,19.9-13.5,29-.5.4-.9.8-1.3,1.3-.5.4-.9.8-1.4,1.2-.6,0-1.1.3-1.6.5-1.3.2-2.5,0-3.8,0l-1.1-.8h-.5c-.4-.6-1-.9-1.5-1.2-5.8-8.3-7.4-19.2-14.1-26.9-5.3-4.6-16.1-4.3-21.6-.4l-1.6,2.6-.2.9c.2,15.6,13.2,34.5,19.8,48.3,7.4,15.4,16,30.1,23.5,45.4h-.1ZM146.3,105.8c9.8,19.2,18.2,41.3,31.4,58.4.8.6,1.6,1.3,2.4,1.9,13,4.2,30.3,1.8,43.9,1.7,13.2,0,28,1.3,40.8-2.1.9-.4,1.8-.9,2.6-1.4.7-1,1.4-2.1,1.9-3.2,2-8,3.2-21.2.8-29.2-2.7-8.9-13.9-11.5-21.8-14.8-15.2-6.4-30.6-12.2-46-18.2-8.7-3.4-17.8-6.3-26.1-10.4-.6-.4-1.2-.7-1.8-.9-1.2-1.2-2.1-2.7-2.6-4.3v-1.3c.1,0,0-.6,0-.6.3-.6.4-1.3.4-1.9.4-.8.9-1.6,1.4-2.3.6-.4,1.1-.8,1.6-1.3,22.5-12.2,48.7-19.2,72.2-29.3,6.7-2.8,17.7-5.6,21.5-12.2,2.4-7.3,2.9-20.7-1.4-27.3-.8-.6-1.7-1.2-2.6-1.7-14.8-4.5-33-2.4-48.4-2.5s-32.5-1.9-47.7,1.4c-.9.5-1.8.9-2.7,1.3-.7.9-1.3,1.7-2,2.5-4.7,8.7-6.8,18.6-11,27.6-.5.5-.9,1.1-1.3,1.7-.5.3-.9.6-1.3.9-.5,0-1,.3-1.4.5-1.1.2-2.2,0-3.3,0-.5-.4-1.1-.8-1.7-1.2l-.6-.7-.6-.4c-5.9-8.7-6.7-20.1-13.1-28.7-.8-.6-1.6-1.2-2.4-1.8-6.8-2.1-15.3-1.6-22.2.2-.9.4-1.8.8-2.7,1.2h0c-.6,1.2-1.1,2.3-1.7,3.3.8,13.4,10.9,27.6,16.8,39.3,6,12.1,11.9,24.2,18.3,36.1,3.5,6.6,7,13.1,10.4,19.7h.1,0ZM148.1,111.1c9.4,18.1,17.6,37.4,29,54.3.8.6,1.5,1.3,2.3,2,13.9,3.1,30.2,1.2,44.5,1.1,13.9,0,30.8,2.2,44.2-1.9.8-.8,1.5-1.6,2.3-2.4,2.6-10.7,2.6-25.2.5-36l-1.7-2.4c-22.2-13.7-50.2-21.1-74.4-30.5-6.6-2.6-13.7-4.7-19.9-8.2-1.6-1.5-2.5-3.3-2.8-5.5l.4-.9c1.7-8.5,24.6-13.2,31.8-16,13.8-5.4,27.7-10.9,41.5-16.5,7.6-3.1,17.5-5.6,23.7-11.1.8-1,1.3-2.2,1.6-3.5.9-8.5,1-17.8-.6-26.2-.6-1-1.3-2-2.1-2.8-.9-.2-1.9-.6-2.8-.9-24.2-3.7-50.6-1.5-75.1-1.4-7.4,0-14.8,0-22.1.8-.9.4-1.9.7-2.8,1-.6.9-1.3,1.8-1.9,2.6-4.3,9.2-7.3,19.3-10.6,28.9-2.1,3.1-6,3.9-8.8,1.2-.3-.3-.6-.6-.9-.8-4.4-9.8-6.6-21.2-12.3-30.4-.8-.6-1.7-1.2-2.5-1.7-8.5-1.7-18.4-1.3-26.8.4-.9.3-1.8.7-2.6,1h0c-.4,1.2-.9,2.2-1.4,3.3,1.4,13.7,12.6,29.1,18.7,41.1,6.6,12.8,13.2,25.7,19.8,38.5,4,7.6,8.1,15.2,12,22.9h-.2ZM149.1,114.4c9.1,17.3,17.3,35.6,27.6,52.2l2.1,1.8c14.7,1.7,30.1.6,45,.6s30.1,1.1,44.6-.8c.8-.6,1.7-1.1,2.6-1.6,3.2-11.2,3-29.2.4-40.5-12-8.9-29.8-13-43.6-18.4-12.9-5.1-25.7-10.1-38.6-15.2-5.4-2.1-16.4-3.8-16.9-11l.3-.6c1.1-8.3,26.7-13.9,33.8-16.7,13.3-5.2,26.6-10.5,39.9-15.8,7.9-3.1,15.9-6.2,23.6-9.9l.7-.6,1.1-1.6c1.6-9.8,1.6-21.9-.3-31.7-.7-.7-1.5-1.4-2.2-2-17.3-2.8-36.2-1-53.7-1s-35.2-3.1-50.3,1c-.6.9-1.1,1.7-1.7,2.6-3.6,9.9-7.5,19.9-10.4,30.1-2.2,3.5-6.5,3.7-9.1.5-3.5-10.7-7-21.9-11.8-32-.8-.5-1.7-1-2.6-1.4-9.4-1-24.9-2.7-33.6,1.4l-.9,2.5c.3.9.5,1.8.5,2.7,10.3,28.4,27.8,55.5,41.8,82.2,4,7.7,7.9,15.4,12,23.1h-.3ZM148.6,114.1c9.4,17.7,17.9,36,28,53.3v.2c.4.6.8,1.1,1.3,1.5h0c22.7,2.2,46.6.3,69.5.2,6.7,0,13.4,0,20-.3.6.2,1.3.2,1.9,0h.4c.7-.3,1.4-.5,2.1-.6.1-.7.3-1.4.6-2.1-.1-13,.2-26.2,0-39.2-.2-.5-.3-1.1-.3-1.6-24.5-13.3-53.5-21.5-79.5-31.7-5.7-2.2-19.8-4.7-20.2-12v-.3c.8-8.4,30.9-15.7,38.5-18.7,13.3-5.2,26.5-10.4,39.8-15.6,6.6-2.6,13.2-5.4,19.8-7.9.4-.4.9-.8,1.5-1,0-.8.2-1.5.4-2.2,0-10.1-.3-20.4,0-30.5-.2-.9-.4-1.8-.5-2.7-.6-.4-1.3-.7-2-.9-26.6-.4-53.3-.4-79.9-.4s-15.3,0-22.9.2h-1.6c-.4,0-.9.2-1.3.2h-.2v.2c-.3.5-.6,1.1-1,1.7-3,10.6-7.2,21-10.6,31.5-2,3.4-6.1,3.7-8.6.6-4.6-10.9-6.5-23-11.8-33.6-.6-.3-1.2-.5-1.9-.6h-.2c-11.6-.7-23.9-.7-35.5.4h-1l-.4.5-1.1.6v1l.2.5.2,1.2c.4.5.7,1,1,1.5l.2,1.1c.6,1.3,1.3,2.6,2.1,3.9.2.9.6,1.7,1.2,2.4,10.9,26.9,27.1,52.8,40.7,78.5,3.6,6.9,7.3,13.9,10.9,20.8h.2ZM.8,2.1v-.7h0v141h0V2.1h0ZM73.8,1.4h.7H.8h73ZM49.9,48.4c-12.7,24.3-25.4,48.6-38.1,72.9-3.7,7-7.3,14-11,21h0c19.1-36.6,38.3-73.2,57.4-109.8,5.4-10.4,10.9-20.8,16.3-31.2h0c-8.2,15.7-16.4,31.4-24.6,47.1h0ZM.8,142.4v-.4c.1,0,0,.4,0,.4,19.1-36.6,38.3-73.2,57.4-109.8,5.4-10.4,10.9-20.8,16.3-31.2l-.3.2.3-.2H.8v141h0ZM.9,141.9v.4c-.1,0-.1-141-.1-141h73.7l-.3.2.3-.2c-19.1,36.6-38.2,73.2-57.4,109.8-5.4,10.4-10.9,20.8-16.3,31.2v-.4h.1ZM16.6,58c-4.8-10.2-6.9-32.9,3.9-40.1,5.6-3.7,17.8-3.8,22.1,2.1,4.5,6.3-.5,16.3-3.5,22.2-3.4,6.7-9.8,19.6-18.5,19.5-.6-.2-1.1-.5-1.6-.8-.4-.4-.8-.9-1.3-1.3-.3-.6-.7-1.2-1.1-1.7h0ZM14.1,71.7l-.5-.7c-5.7-12.2-9.8-46.4,1.3-56.3,6.8-6.1,27.2-6.6,33.5.6,6.8,7.9-2.5,23.2-6.5,30.7-4.2,8-13.5,28.8-24.4,28.7-.5-.3-1.1-.5-1.6-.8-.4-.5-.8-.9-1.2-1.3l-.5-.9s-.1,0-.1,0ZM12.8,83.5c-.3-.5-.7-1-1.1-1.5-5.6-11.3-5.1-27-5.2-39.3-.2-10.8-2.2-28.7,10-33.5,8.6-3.4,34.8-4.3,38.4,6.7,3.1,9.7-7.9,26-12.3,34.1-5.4,9.9-14.5,31.3-26.3,34.8-.7,0-1.4,0-2-.3-.4-.4-.9-.8-1.4-1.1h-.1ZM8.9,88.7c-3.6-11.7-3.6-24.8-3.9-37-.3-10.9-3.7-31.6,3.3-40.7,7.1-9,41.6-8.7,48.5-.8,7.9,9-8.8,33.5-13.3,41.8-6.3,11.8-16.2,37.2-29.6,41.7-.6,0-1.3-.2-1.9-.4-.4-.4-.9-.8-1.3-1.2-.3-.6-.6-1.1-1-1.6-.2-.6-.4-1.2-.8-1.8h0ZM5,83.1c-1.3-16-1.7-32.2-1.6-48.3,0-6.9-.8-15.8,1.7-22.2,3.3-8.5,12.6-7.9,20.6-8.2,12.5-.4,40.3-3.6,34.5,15.4-4.4,14.5-13.1,28.4-20.4,41.7-6.5,11.9-15,33.8-27.6,40.2-.7,0-1.4,0-2.1-.2-.4-.4-.8-.8-1.3-1.2-.2-.6-.6-1.1-.9-1.7-.2-.7-.4-1.3-.7-1.9-1.2-4.4-1.8-9-2.2-13.6h0ZM6.4,105.7c-.2-.5-.4-.9-.5-1.4-3.9-18.2-3.1-38-3.3-56.6,0-12-4.8-40.5,9.9-43.6C21.7,2.1,56.1-.8,62.8,7c7.5,8.6-14.1,40.1-18.5,48.5-8.5,16-16.6,34.1-28.2,48.2-1.5,1.8-2.9,3.5-4.8,5l-1.5.5h-1c-.4-.4-.8-.8-1.4-1.1-.2-.6-.5-1.2-.9-1.7v-.6h0ZM5.1,113c-.2-.4-.3-.9-.5-1.3C0,86,1.7,58.1,1.9,32.1,1.9,24.3.1,12.1,4.5,5.3c.4-.3.9-.7,1.3-1,8.3-2.9,18.7-1.8,27.3-1.7,10,0,22.1-1.3,31.5,2.5.4.4.8.7,1.3,1.1l.4.6c0,.6.3,1.1.4,1.7-1.4,14.5-13,30.5-19.6,43.2-7.7,14.6-15.5,29.2-23.6,43.5-3.9,6.8-7.8,15.1-13.9,20.2-.4.2-.9.4-1.3.7l-.6.2c-.5-.3-1-.6-1.6-.8-.2-.6-.5-1.2-.9-1.7v-.7h-.1ZM4,120.9v-.6c-.2-.4-.4-.9-.5-1.3h0c0-.9,0-1.6-.4-2.4C.4,89.3,1.3,61.2,1.4,33.7,1.4,24.6.1,13.7,2.8,4.9c.4-.5.8-.9,1.2-1.3,8.6-3.3,20.7-1.6,29.8-1.6s25-2.3,34.1,2.5l.8,1.4c.2,14.4-15.4,34.8-21.9,47.3-8.2,15.6-16.4,31.2-24.9,46.6-4.2,7.6-8.3,16.4-14.4,22.5l-.9.4h-1.5l-.3-1-.6-.7h-.2,0ZM1.8,118.8c-.6-16.1-.6-32.2-.7-48.4V27.7c0-7.7-1.3-17.3,1.1-24.6.5-.3.9-.5,1.4-.8,19.3-3.1,45.6-2.9,64.8.2.5.2.9.3,1.4.5h0c.3.6.6,1.2.8,1.7-3.4,16.3-16,33.7-23.7,48.4-8.3,15.8-16.6,31.6-25,47.3-5,9.3-9.6,19.8-16.4,27.8l-1,.7v.2l-.6.2v-.4l-1.2-.9v-.4c-.2-.4-.3-.8-.3-1.3l-.2-.4v-.9c0-.4-.2-.9-.3-1.3h0c0-1.8-.2-3.4-.3-5h.2,0ZM1.9,135.1v-1c-.1-.2-.3-.5-.4-.7.2-.7.1-1.4-.1-2v-3.9c0-.8-.1-1.6.1-2.4v-.6c0-2.2-.1-4.3-.2-6.5.3-15.1,0-30.3-.1-45.5s0-30,0-45S.9,11.1,1.5,2.9c.2-.3.4-.6.6-1,.3,0,.7-.1,1.1-.2h.2c17.6-.5,35.3-.4,52.9-.2,5.2,0,10.6-.1,15.8.5h0c.2.6.4,1.2.7,1.8-6,15.6-15.4,30.6-23.2,45.5-8,15.2-16,30.5-23.9,45.7-4.2,8.1-8.4,16.3-12.9,24.2-.1.5-.4.9-.7,1.3-1.9,4.1-4.2,8.1-6.6,11.9-.3.4-.6.8-.8,1.2l-.4.3-.5.8-1.2.4-.2.2h-.3v-.2h-.3,0ZM16.7,57.8c.4.7.8,1.4,1.2,2,.4.4.9.8,1.3,1.3.5.3,1.1.5,1.6.8,11.5,0,26-27.6,23.5-37.9-2.1-8.4-13.5-9.9-20.6-7.2-8.1,3.1-9.8,11.4-10.1,19.2-.3,7.2.2,15.2,3.2,21.8,0,0-.1,0-.1,0ZM13.8,71c.4.5.7,1,1,1.6.4.4.9.8,1.2,1.3.5.2,1.1.5,1.6.8,13.4,0,36.3-42.4,32.9-55.1-2.9-10.9-23.9-10.9-32.2-6.8-9.9,4.9-9.2,18.7-9.1,28.2,0,9.5.4,21.1,4.6,30.1h0ZM12.4,82.7l.5.8c.5.3,1,.7,1.4,1.1.7.2,1.3.3,2,.3,10.8-3.3,18.8-21.4,23.9-30.5,5.5-9.7,14.2-22.6,14.8-34,.7-14.9-23.2-13.8-33.6-12-15.4,2.6-14.8,17-14.9,29.9,0,13.5-1,31.4,5.3,43.8l.5.6s.1,0,.1,0ZM9,88.5c.3.7.6,1.3.8,2,.4.5.7,1,1,1.6.5.4.9.8,1.3,1.2.6.2,1.3.3,1.9.4,12.4-4,21.6-27,27.4-37.6,5.5-10,18.9-28.6,17.4-40.6C57.1,2.2,23.4,3.3,13.6,7.5,1.3,12.9,4.7,35.9,4.9,47.2c.3,13.5,0,28.4,4,41.4h.1ZM5.1,83c.5,4.6,1,9.2,2.2,13.7.3.6.5,1.3.7,1.9.4.5.7,1.1.9,1.7.5.4.9.8,1.3,1.2.7.2,1.4.2,2.1.2,11.2-5.6,18.5-23.8,24.3-34.2,7.6-13.7,15.6-27.6,21.6-42.2,3.5-8.6,6.3-16.4-4.7-19.4-6.8-1.8-14.7-1.5-21.7-1.5s-17.9-1.3-23.2,2.9C2.7,11.8,3.8,22.9,3.7,29.6c-.4,17.8,0,35.6,1.5,53.3h0ZM6.1,104.6c.2.5.4,1.1.5,1.6.4.5.7,1.1.9,1.7.5.3.9.7,1.4,1.1h1l1.5-.5c13.2-10.7,21.1-31.2,29-45.9,4.4-8.1,8.7-16.2,12.8-24.5,3.6-7.1,10.2-16.8,10.8-24.9C65-1,28.9,3,18.8,3.6,6.7,4.3,3.7,8.2,3,20c-.4,7.3-.4,14.7-.3,22.1,0,18.2-.4,37,2.1,55.1.3,2.4.7,4.7,1.2,7.1v.3h0ZM4.7,111.7c.3.6.5,1.2.6,1.9.4.5.7,1.1.9,1.7.6.2,1.1.5,1.6.8l.6-.2c.4-.3.8-.5,1.3-.7,11.1-9.3,18-27.4,24.8-39.9,7.8-14.3,15.4-28.8,22.7-43.3,3.6-7.2,8.8-15.4,9.6-23.6,0-.6-.3-1.1-.4-1.7l-.4-.6c-.4-.3-.9-.7-1.3-1.1-9.3-3.8-21.5-2.4-31.4-2.5-8.6,0-19-1.2-27.3,1.7-.5.3-.9.7-1.3,1C-2,15.6,1.9,36.8,2,48.9c0,12.9,0,25.8.6,38.7.3,8.1.7,16.2,2.1,24.1h0ZM4.1,120.3v.6l.6.7.3.9h1.5l.9-.3c11.3-11.3,18.3-29.5,25.8-43.4,8.3-15.4,16.4-31,24.4-46.5,3.8-7.5,11.2-17.8,11.1-26.4l-.8-1.4C58.9-.3,44,2.1,33.9,2,24.7,2,12.7.3,4,3.5c-.4.4-.8.9-1.2,1.3C-1.9,20,1.4,40.5,1.5,56.3c0,11.3.1,22.7.3,34,.2,8.8.5,17.6,1.3,26.3.3.7.4,1.5.4,2.2h0c0,.6.3,1,.4,1.4h.2ZM1.9,118.8c.1,1.7.3,3.3.3,5h0c0,.5.2,1,.3,1.4v.9l.2.4c0,.4,0,.9.3,1.3v.4l1,.9v.4l.6-.2v-.2l1.1-.7c11.8-13.8,19.5-33.4,27.9-49.4,8.3-15.7,16.5-31.4,24.7-47.1,4.4-8.4,10.5-17.6,12.5-26.8-.3-.6-.6-1.1-.8-1.7h0c-.5-.2-.9-.4-1.4-.5C49.3-.5,22.9-.7,3.7,2.4c-.5.2-.9.5-1.4.8C-1.7,15.5,1.1,32.9,1.1,45.8s0,32.1.2,48.1c0,8.3.2,16.6.6,24.8h0ZM1.9,134.9v.2h.3c0,.1.2,0,.2,0l1.2-.4.5-.8.4-.3c.2-.4.5-.9.8-1.2,2.4-3.8,4.7-7.8,6.6-11.9.4-.4.6-.8.7-1.3,8-14.3,15.4-29.1,23.1-43.7,8.1-15.5,16.2-31,24.3-46.4,4.3-8.3,9.2-16.5,12.6-25.2-.3-.6-.5-1.2-.7-1.8h-.2C54.2-.2,35.7,1.4,18.1,1.5c-5.1,0-10.1,0-15.2.2h-.2c-.3.2-.7.2-1.1.3-.2.3-.4.7-.6,1-1,14.7-.3,29.7-.3,44.5v45.1c0,8.4.3,16.9,0,25.3.1,2.2.2,4.3,0,6.5v.6c0,.8,0,1.6.2,2.4v.5c-.1,0-.1.2-.1.2,0,.6,0,1.2.2,1.7v.5c-.1,0,0,.4,0,.4v.6c.2.7.2,1.3,0,2,0,.2.3.5.4.7v.8h.5ZM112.3,169.4h-60.5,60.5ZM112.1,169.1l.2.4h0c-6.9-13.2-12.8-29.2-21.6-41.3-12.3-16.8-21.8,8.6-26.7,18-4,7.8-8.1,15.5-12.1,23.3h0c6.9-13.2,12.7-29.3,21.6-41.3,12.2-16.6,21.6,8.3,26.5,17.7,4.1,7.8,8.1,15.5,12.2,23.3h0ZM52,169.3h-.2,60.5-.2c0-.1.2,0,.2,0-6.9-13.2-12.8-29.2-21.6-41.3-12.3-16.8-21.8,8.6-26.7,18-4,7.8-8.1,15.5-12.1,23.3h.2-.1ZM51.8,169.4h.2-.2c6.9-13.2,12.8-29.2,21.6-41.3,12.2-16.8,21.8,8.6,26.7,18,4.1,7.8,8.1,15.5,12.2,23.3h-.2.2-60.5ZM72.1,157.8c-4.1-6.9,4.5-22.1,13-18.4,8.1,3.5,11.2,18,2,21.1-4.5,1.5-11.7.8-15-2.7h0ZM69.5,161.6c-8.4-5.9,5.4-30.3,14.8-27.5,10,3,18.1,25.2,6.1,29-5.9,1.9-15.4,1.4-20.8-1.5h-.1ZM65.5,162.5c-6.6-8.3,10.5-37.8,21.6-29.8,5.1,3.7,9.2,13.3,11.2,19,3.1,9,.6,12.4-8.8,13.6-6.9.9-18,1.6-23.9-2.8h0ZM63.5,164.1c-7-7.3,11.7-41.5,23.1-34.4,5.9,3.7,10.2,15.1,12.8,21.2,4.2,10,2.9,14.5-8.4,15.6-8,.8-20.4,1.9-27.5-2.4h0ZM61,165c-4.1-5.8,4.6-18.3,7.5-23.7,4.1-7.6,10.2-20.7,19.8-11.8,5.8,5.3,9.9,16.1,12.9,23.3,4.9,11.5,1,14.1-10.7,14.7-8.4.4-22.1,2.2-29.5-2.5h0ZM59.8,166.3c-5-5.1,5.6-20.5,8.4-25.7,3.9-7.3,9.9-21.3,19.8-13,6.3,5.2,10.5,17.5,13.9,24.8,1.5,3.2,5.7,9.8,3.2,13.2-2.2,3-10,2.4-13.3,2.5-9.7.4-22.9,2-32-1.8h0ZM57.8,166.9c-.3-.2-.5-.4-.7-.7-1.7-9.2,10.7-27.7,15.8-35.3,11.6-17.5,20.9,4.6,26.2,14.9,2.8,5.5,8.9,14,7.9,20.3-.2.3-.4.6-.7.8-6.8,3.2-16.8,1.9-24.2,1.9s-17.3,1.3-24.3-1.8h0ZM55.9,167.4l-.3-.4c-.6-10,11.7-28.1,17.1-36.5,11.6-18,21.1,4.4,26.5,14.8,3.4,6.5,8,13.5,9.5,20.8,0,.3-.2.6-.2.9l-.2.3c-.3.2-.5.3-.7.6-7.8,2.3-17.3,1.2-25.4,1.2s-17.5,1-25.4-1.1c-.2-.2-.5-.4-.8-.5h-.1ZM55.6,168.6c-.3,0-.5-.2-.8-.3-.2-.3-.4-.6-.6-.9h0c2.5-12,11.9-27.2,18.6-37.6,11.9-18.5,21.7,5.8,27.1,16.1,3.4,6.6,8.7,14.1,10.1,21.4l-.5.8c-12.2,3.8-29.3,1.1-42,1-3.9,0-7.9,0-11.8-.6h-.1ZM53.5,169l-.5-.6v-.2h0v-.7l.2-.2c4.9-12.4,12-25.4,18.9-36.8,11.9-19.5,21.9,4.5,27.6,15.5,3.3,6.3,6.8,12.6,9.8,19.1.2.2.3.5.4.7.2.2.3.5.4.8.2.2.3.5.3.8v.2c.2.2.3.4.3.6h0c-.2.4-.4.7-.6,1.1h0c-14.6,1.4-29.7.4-44.3.3-4.1,0-8.3,0-12.4-.3h-.2v-.3h0ZM71.8,157.2c5.3,7.1,21.6,5.1,21.2-4.9-.4-9-9.7-17.9-17-10-3.3,3.5-6.2,10.3-4.2,15h0ZM69.4,161.4c9.4,5.4,30.9,4.6,26.7-10.2-3.8-13.2-14.4-24.1-23.7-9-2.9,4.7-8.6,14.7-2.9,19.2h-.1ZM65.5,162.4c8.7,6.6,37.7,6.6,33.5-8.9-1.6-6-5.5-13.8-9.7-18.4-7.3-8.1-12.8-3-17.6,4.7-3.2,5.2-10.6,16.7-6.2,22.6h0ZM63.2,163.8c6.2,4.2,17,3.2,24.2,2.8,9.6-.5,16.9-1.5,13.3-12.6-2.3-6.9-6.6-16.4-11.7-21.8-7.8-8.4-13.4-1.6-18,6.2-3.2,5.5-12.6,19.3-7.8,25.4h0ZM61,164.9c6.5,4.4,18.3,2.9,25.9,2.7,9.2-.2,19.7.4,15.8-11.4-2.6-7.8-7.2-16.7-12-23.4-8.1-11.4-15-4.1-20.3,5.3-3.3,5.9-13.4,20.3-9.3,26.9h-.1ZM59.7,166.2c8,3.5,19.4,2.1,27.9,2,10.8-.2,21.2.7,15.7-12.6-3.4-8.2-7.6-17.6-12.9-24.7-8.3-11.2-15.2-3.1-20.2,6-3.1,5.6-15.6,23.8-10.5,29.4h0ZM57.4,166.5c6.5,3.8,17.3,2.2,24.7,2.2s17.4,1.4,24.3-1.9c.3-.2.5-.5.7-.8,1.4-9.4-10.7-27.3-15.8-35-11.6-17.6-20.9,4.3-26.2,14.8-2.8,5.4-9.1,14.2-7.8,20.4l.2.3h-.1ZM55.6,166.9l.3.4c.3.1.5.3.8.5,7.9,2.2,17.3,1.1,25.4,1.1s17.6,1.1,25.4-1.2c.2-.2.5-.4.7-.6l.2-.3c0-.3,0-.6.2-.9-2.3-11.5-11.1-26.5-17.7-36.2-11.8-17.4-21.3,6.2-26.5,16.2-3,5.8-9.3,14.3-8.9,20.9h.1ZM55.1,168.4c13.2,2.7,28.8.9,42.2.7,4,0,8.3.2,12.1-.9l.5-.8c-2.2-11.9-12-27.3-18.5-37.5-11.9-18.6-21.7,5.6-27.1,16-3.5,6.7-8.6,14-10.1,21.5h0c.2.3.4.6.6.9h.3v.2h0ZM53,168.3l.5.6h0c14.6,1.2,29.6.4,44.3.3,4.2,0,8.3,0,12.4-.3h0c.2-.3.4-.7.6-1h0c0-.2,0-.5-.2-.7v-.2c-.2-.3-.3-.6-.5-.8,0-.3-.2-.5-.3-.8,0-.3-.2-.5-.4-.7-5.5-11.9-11.3-26.2-19-36.7-12.5-17.1-22.3,9.6-27.3,19.1-3.4,6.5-7.3,13-10,19.8l-.2.2v.6h0v.4h0v.2h0Z"></path>
</svg>