<?xml version="1.0" encoding="UTF-8"?>
<svg id="Layer_2" data-name="Layer 2" xmlns="http://www.w3.org/2000/svg" width="148.77783" height="99.32009" viewBox="0 0 148.77783 99.32009">
  <defs>
    <style>
      .cls-1 {
        fill: #fff;
      }
    </style>
  </defs>
  <g id="Layer_1-2" data-name="Layer 1">
    <g>
      <path class="cls-1" d="M36.04224,99.32009h21.24756v-27.74722c0-.05455-.04361-.09877-.09741-.09877h-20.71884c-.23821,0-.43131.19582-.43131.43737v27.40862Z"/>
      <path class="cls-1" d="M1.33789,37.41073L42.56592.22537H0v38.47735c.33765-.68094.77466-.77159,1.33789-1.29198Z"/>
    </g>
    <path class="cls-1" d="M50.53198,0l42.16187,38.01666c1.15356,1.06616.87207,1.67633,1.16528,3.33551l.02832,57.74255h54.89038V0H50.53198ZM125.95972,37.07642c-7.83301,0-14.18286-6.34998-14.18286-14.18286s6.34985-14.18286,14.18286-14.18286,14.18286,6.34985,14.18286,14.18286-6.34985,14.18286-14.18286,14.18286Z"/>
  </g>
</svg>