<?xml version="1.0" encoding="UTF-8"?>
<svg id="Layer_2" data-name="Layer 2" xmlns="http://www.w3.org/2000/svg" width="149" height="99.32007" viewBox="0 0 149 99.32007">
  <defs>
    <style>
      .cls-1 {
        fill: #fff;
      }
    </style>
  </defs>
  <g id="Layer_1-2" data-name="Layer 1">
    <g>
      <polygon class="cls-1" points="69.35828 72.45471 47.58496 57.8222 30.02588 69.64526 69.35828 95.9057 69.35828 72.45471"/>
      <polygon class="cls-1" points="26.0459 60.28046 38.57129 51.85211 26.0459 43.42371 26.0459 60.28046"/>
      <polygon class="cls-1" points="47.70215 45.76495 69.47534 31.13239 69.47534 7.72028 30.02588 34.0589 47.70215 45.76495"/>
      <polygon class="cls-1" points="74.50891 63.79224 92.30212 51.85211 74.50891 39.91193 56.7157 51.85211 74.50891 63.79224"/>
      <polygon class="cls-1" points="123.08911 43.42371 110.44653 51.85211 122.97192 60.28046 123.08911 43.42371"/>
      <path class="cls-1" d="M41.14673,89.07733c-7.60901-5.03357-15.2179-9.95013-22.70972-15.10083-3.16064-2.10706-2.45825-6.0871-2.45825-9.48187v-18.72968c0-3.86298-.11719-7.84308,0-11.70605.11694-3.51184,3.51172-5.1507,6.08704-6.78949L51.56506,7.60321c3.76843-2.51233,7.57068-5.05841,11.3717-7.60321H0v99.32007h56.51086c-5.12146-3.42462-10.2428-6.84979-15.36414-10.24274Z"/>
      <polygon class="cls-1" points="101.3158 57.93921 79.54248 72.57178 79.54248 95.98389 118.87488 69.76233 101.3158 57.93921"/>
      <path class="cls-1" d="M86.10303,0c9.37769,6.2804,18.84106,12.56067,28.20654,18.841,4.21411,2.80951,8.31128,5.50189,12.52539,8.31134,2.34119,1.52179,5.73596,3.16064,6.20422,6.20416.11707,1.17065,0,2.34125-.11707,3.62891v32.19165c0,1.98999-.70239,3.62885-2.34119,4.79944-.70239.58533-1.52185,1.05359-2.22424,1.52179l-11.58887,7.72601c-8.04785,5.33508-16.09583,10.72888-24.14368,16.09576h56.37585V0h-62.89697Z"/>
      <polygon class="cls-1" points="79.54248 31.24945 101.43286 45.88202 118.99194 34.0589 79.54248 7.72028 79.54248 31.24945"/>
    </g>
  </g>
</svg>