<svg width="600" height="400" viewBox="0 0 600 400" fill="none" xmlns="http://www.w3.org/2000/svg">
<g clip-path="url(#clip0_1_205)">
<rect width="600" height="400" fill="#0F0098"/>
<path d="M644.208 307.294C645.239 307.696 646.27 308.097 647.327 308.524C580.47 282.349 513.614 256.15 446.757 229.95C434.835 225.282 404.576 219.41 398.011 207.967C386.063 187.187 421.076 180.111 434.231 174.941C467.584 161.891 500.937 148.817 534.315 135.742C571.969 120.986 609.648 106.23 647.302 91.4485C581.149 117.372 515.022 143.296 448.87 169.194C436.545 174.012 408.424 179.207 400.098 189.521C383.07 210.526 418.158 218.732 432.043 224.178C465.169 237.152 498.27 250.127 531.397 263.101C569.001 277.832 606.604 292.563 644.208 307.294Z" stroke="white" stroke-width="0.25" stroke-miterlimit="10"/>
<path d="M187.758 1.0307C187.255 0.051976 186.726 -0.926745 186.223 -1.88037C214.696 52.4763 243.195 106.833 271.668 161.19C300.141 215.546 329.494 271.559 358.395 326.744C374.669 357.787 390.918 388.83 407.192 419.873C378.669 365.441 350.145 310.984 321.622 256.552C293.073 202.045 264.499 147.563 235.951 93.0807C219.878 62.4141 203.83 31.7475 187.758 1.08089V1.0307Z" stroke="white" stroke-width="0.25" stroke-miterlimit="10"/>
<path d="M372.002 1.00555C372.329 0.0268293 372.656 -0.926796 372.983 -1.90552C367.701 13.8795 352.308 88.714 334.499 89.9437C316.691 91.1734 299.512 13.6787 294.229 -1.90552C299.587 13.9297 315.056 88.6889 332.714 89.9437C350.371 91.1985 366.821 16.389 372.002 1.00555Z" stroke="white" stroke-width="0.25" stroke-miterlimit="10"/>
<path d="M186.223 -1.90552L187.506 -1.15266M186.223 -1.90552C214.697 52.4512 243.195 106.808 271.668 161.164C300.569 216.349 329.495 271.534 358.395 326.719C374.669 357.762 390.918 388.805 407.192 419.848H647.327V308.525C580.471 282.35 513.614 256.151 446.758 229.951C434.835 225.283 404.576 219.411 398.011 207.967C386.064 187.188 421.077 180.112 434.232 174.942C467.584 161.892 500.937 148.818 534.315 135.743C571.969 120.987 609.648 106.231 647.302 91.4494V-1.78004C575.918 -1.80514 504.559 -1.83023 433.175 -1.88042C413.103 -1.88042 393.031 -1.88042 372.959 -1.88042C367.677 13.9046 352.283 88.7391 334.475 89.9688C316.667 91.1985 299.487 13.7038 294.205 -1.88042H186.198L186.223 -1.90552Z" stroke="white" stroke-width="0.25" stroke-miterlimit="10"/>
<path d="M187.506 -1.15266L186.223 -1.90552H294.23C299.512 13.7038 316.214 91.2236 334.5 89.9437C352.786 88.6638 367.702 13.8293 372.984 -1.90552C444.368 -1.88042 515.727 -1.85533 587.111 -1.80514C607.183 -1.80514 627.255 -1.80514 647.327 -1.80514V91.4243C580.42 117.649 513.514 143.874 446.582 170.073C434.684 174.741 404.576 180.563 398.011 191.982C386.063 212.786 421.202 219.888 434.357 225.057C467.735 238.132 501.113 251.207 534.516 264.307C572.12 279.038 609.724 293.769 647.327 308.5V419.823H407.192C378.291 364.638 349.365 309.453 320.465 254.269C291.79 199.535 263.116 144.827 234.441 90.0943C218.369 59.4277 202.321 28.7611 186.248 -1.90552L187.531 -1.15266H187.506Z" stroke="white" stroke-width="0.25" stroke-miterlimit="10"/>
<path d="M401.255 296.428C400.727 290.907 402.01 285.386 404.827 280.518C407.066 278.861 409.38 277.28 411.719 275.8C414.486 275.549 417.177 274.972 419.818 274.093C463.232 274.169 538.213 297.131 563.467 335.175C564.573 337.961 565.756 340.722 567.064 343.407C567.164 346.243 567.24 349.078 567.315 351.939C565.781 354.926 564.171 357.887 562.511 360.798C538.867 380.548 495.051 381.978 465.999 376.131C428.597 368.628 404.475 333.344 401.28 296.428H401.255Z" stroke="white" stroke-width="0.25" stroke-miterlimit="10"/>
<path d="M346.07 150.599L345.818 149.721C345.844 147.387 345.919 145.053 345.994 142.719C347.101 140.486 348.082 138.177 348.912 135.818C350.924 133.861 352.61 131.652 353.968 129.218C356.181 127.436 358.093 125.303 359.602 122.894C361.036 121.489 362.52 120.083 364.029 118.753L365.262 116.771C387.019 92.4282 395.722 56.6171 430.081 45.8762C456.592 37.5696 515.5 36.1141 533.61 61.6362C533.786 64.497 533.962 67.383 534.113 70.2439C532.428 72.8287 531.02 75.539 529.837 78.3999C527.247 80.8843 524.757 83.4692 522.392 86.1795C483.858 117.574 433.904 127.913 389.408 147.161C385.711 148.19 382.164 149.771 378.945 151.879C375.096 153.034 371.374 154.715 367.953 156.823C364.633 157.551 361.287 158.354 357.992 159.232C355.527 158.58 353.062 157.902 350.623 157.2C349.063 155.066 347.529 152.858 346.07 150.625V150.599Z" stroke="white" stroke-width="0.25" stroke-miterlimit="10"/>
<path d="M312.013 154.037C309.473 145.755 307.888 136.671 311.611 128.515L313.674 125.529C323.86 115.842 339.883 114.286 351.478 106.356C352.635 105.076 353.969 103.946 355.427 103.018C369.714 89.6672 375.575 71.222 386.919 55.7131C401.533 35.7371 420.322 29.664 444.142 27.4556C480.84 24.0426 546.062 21.0312 575.239 48.084C576.572 50.97 577.855 53.9313 579.088 56.8674C578.811 59.7032 578.434 62.5139 577.93 65.3246C576.321 67.9847 574.761 70.695 573.328 73.4555C547.596 101.437 506.974 116.344 472.565 130.648C436.546 145.605 388.302 155.191 368.255 192.056C367.601 193.813 366.822 195.545 365.941 197.201L365.891 197.502L362.646 202.471L362.42 204.378L358.27 208.017L357.465 210.301L354.145 210.125C352.233 208.946 350.145 208.143 347.932 207.741C346.297 206.361 344.511 205.081 342.7 203.952C328.413 190.927 317.346 172.557 312.013 154.012V154.037Z" stroke="white" stroke-width="0.25" stroke-miterlimit="10"/>
<path d="M373.739 275.123C370.695 265.712 370.997 256.326 371.928 246.615C374.594 245.761 377.109 244.506 379.398 242.9L382.316 244.205C384.354 244.331 386.366 244.607 388.353 245.033L389.585 244.933L393.761 246.765L399.797 247.643C458.932 266.44 534.265 278.912 582.056 322.026C624.866 360.648 575.365 385.844 538.038 390.085C506.848 393.623 463.711 397.89 435.112 382.807C400.024 364.312 381.964 311.26 373.739 275.098V275.123Z" stroke="white" stroke-width="0.25" stroke-miterlimit="10"/>
<path d="M345.164 242.272C327.934 207.54 272.447 147.437 291.538 105.753C293.978 104.599 296.493 103.57 299.084 102.717L300.09 103.143C302.203 103.169 304.29 103.369 306.378 103.721L307.485 103.495L311.836 104.95L315.307 104.825L317.546 105.603C319.483 105.452 321.495 105.502 323.407 105.804C328.84 105.804 334.172 105.101 339.404 103.62C340.812 102.767 342.322 101.989 343.831 101.337C345.139 100.408 346.572 99.6552 348.056 99.078C349.138 97.8483 350.37 96.7191 351.678 95.7403C383.748 66.4038 377.385 25.8496 429.451 19.2495C467.483 14.4061 508.96 17.267 546.991 21.5834C566.963 23.842 599.259 26.6025 605.019 50.3176C605.095 53.1032 605.069 55.8888 605.019 58.6744C604.214 61.4349 603.384 64.1703 602.504 66.9057C586.33 95.2133 543.822 109.242 515.399 121.865C486.976 134.488 455.133 146.282 425.125 158.78C407.795 166.007 389.685 173.36 381.107 191.354C380.831 193.01 380.302 194.566 379.498 196.047L379.372 199.886L379.12 200.664L379.221 201.317L378.416 205.357C378.919 206.813 379.196 208.343 379.196 209.874C381.007 216.374 384.679 222.397 389.71 226.864C390.993 227.918 392.25 229.072 393.458 230.227C395.042 230.929 396.501 231.858 397.809 232.987C432.042 248.847 469.445 258.283 504.583 272.387C537.358 285.562 598.555 301.974 612.917 337.459C637.165 397.412 554.185 399.671 517.009 400.75C470.979 402.055 427.263 404.539 400.349 361.877C376.706 324.41 363.978 281.999 345.139 242.272H345.164Z" stroke="white" stroke-width="0.25" stroke-miterlimit="10"/>
<path d="M346.523 267.293C327.91 227.592 303.436 190.927 285.98 150.649C273.931 122.015 264.147 91.2733 259.116 60.6067C260.424 57.2439 261.858 53.9313 263.417 50.694C267.467 51.0202 271.341 51.9989 275.038 53.6301C287.137 66.1277 296.242 80.7332 309.397 92.2771L312.013 93.3562L313.648 94.9372C315.182 95.4893 316.616 96.2673 317.899 97.2711L320.213 97.6475L322.502 98.9525C324.237 99.0027 326.023 99.2285 327.708 99.5798C331.054 99.6802 334.399 99.4042 337.694 98.827C339.103 98.0741 340.612 97.522 342.171 97.1707C343.328 96.1418 344.636 95.2132 345.969 94.4604C347.051 93.3562 348.283 92.4026 349.617 91.5995C364.029 73.6312 367.048 48.5107 381.863 30.9941C397.483 12.5489 422.459 12.6744 444.921 11.9467C480.689 10.7923 516.884 11.7208 552.551 14.4311C572.824 15.9619 604.491 15.5855 616.54 35.2101C630.676 58.2226 612.314 79.9301 593.801 91.5493C562.159 111.4 525.159 124.7 490.649 138.729C461.497 150.574 397.332 162.77 385.661 195.419L385.585 198.857L385.258 199.886L385.434 200.965L384.956 204.428C385.51 205.834 385.963 207.314 386.29 208.77C388 213.513 390.742 217.704 394.414 221.142C395.646 222.221 396.904 223.35 398.086 224.48C399.646 225.182 401.079 226.111 402.362 227.265C438.381 243.803 476.941 255.473 513.84 270.128C545.055 282.5 594.984 295.098 616.691 322.352C632.034 341.6 631.707 380.724 609.824 394.978C592.343 406.371 563.19 404.941 543.093 405.819C502.421 407.576 435.489 418.518 406.84 383.509C379.825 350.484 364.406 305.563 346.472 267.293H346.523Z" stroke="white" stroke-width="0.25" stroke-miterlimit="10"/>
<path d="M345.416 277.983C326.023 238.107 303.21 200.012 283.968 160.085C267.015 124.927 239.095 77.6217 237.435 38.1967C238.541 34.9594 240.101 31.7723 241.962 28.9616C244.377 27.6818 246.766 26.3517 249.131 24.9966C291.237 13.3021 293.199 71.5736 317.245 90.5207L318.025 90.8218L320.817 93.5071L325.52 94.8371C327.03 95.2888 328.539 95.7405 330.048 96.2174C332.236 96.1421 334.424 95.9413 336.613 95.59C337.996 94.8371 339.455 94.3352 341.015 94.0591L342.096 93.1557L344.938 91.8006C345.919 90.5709 347.001 89.4165 348.158 88.3374C360.257 71.1721 363.577 49.5901 374.292 31.697C387.925 8.98568 410.487 8.53396 434.835 7.68071C477.092 6.17499 519.877 7.10352 562.109 9.46249C583.363 10.642 615.634 8.96058 626.802 30.8438C638.373 53.4799 627.456 78.3996 608.139 91.123C576.27 112.128 536.604 124.374 501.44 138.754C476.036 149.144 398.238 165.33 390.038 194.867C389.61 196.373 389.132 197.904 388.629 199.41L389.484 203.576V203.801C389.686 205.307 389.912 206.813 390.088 208.319C391.647 212.058 393.936 215.345 396.904 218.081C398.338 218.884 399.772 219.812 401.105 220.766C432.848 240.968 475.281 250.529 510.369 264.357C545.458 278.184 597.197 289.703 622.3 316.706C638.373 333.996 639.807 379.419 623.055 397.212C591.538 422.659 513.388 411.642 475.13 410.738C451.21 410.186 424.447 412.118 407.242 393.096C393.76 378.189 384.906 356.959 375.751 339.241C365.287 318.989 355.427 298.436 345.441 277.933L345.416 277.983Z" stroke="white" stroke-width="0.25" stroke-miterlimit="10"/>
<path d="M335.104 266.515C304.568 206.436 273.454 147.061 244.578 86.1291C236.051 68.1356 224.732 48.7369 224.481 28.3092L225.034 26.0255L229.109 19.4756C243.044 9.63823 270.335 9.03594 283.59 20.4795C300.317 39.8029 304.417 67.182 319.006 88.0614C320.389 88.8394 321.672 89.793 322.804 90.8721L324.011 91.2234L326.702 93.3314C329.872 93.8584 333.041 93.9588 336.235 93.5573C337.594 93.0554 338.977 92.6539 340.386 92.3778C341.518 91.374 342.7 90.3953 343.907 89.4667C344.913 88.2873 346.045 87.158 347.252 86.1542C360.76 63.3675 362.948 33.0773 381.259 13.2018C383.448 11.9219 385.611 10.617 387.799 9.33709C423.743 -2.33228 470.301 3.86629 507.678 4.3431C542.968 4.76972 593.802 -2.25699 625.821 14.7326C627.909 16.6399 629.821 18.773 631.506 21.0316C657.715 76.1913 608.893 97.8235 567.517 115.29C531.146 130.648 494.322 145.003 457.573 159.458C438.432 166.986 418.586 173.838 400.476 183.549C399.294 184.804 398.011 185.933 396.653 186.988C394.792 189.321 393.257 191.831 392.025 194.541C392.025 196.097 391.773 197.628 391.27 199.083L391.572 200.589L391.27 203.701C392.83 208.243 395.345 212.359 398.69 215.797C400.174 216.55 401.533 217.529 402.715 218.708C439.765 236.175 479.532 248.722 517.664 263.98C549.055 276.553 608.894 288.95 630.374 316.103C644.535 333.996 642.699 380.674 631.456 399.772C629.594 401.729 627.557 403.561 625.444 405.217C594.154 419.195 549.885 413.75 516.331 413.95C485.845 414.126 444.821 419.748 415.945 408.028C396.024 394.451 384.806 363.76 373.965 342.956C360.76 317.609 348.158 291.937 335.104 266.515Z" stroke="white" stroke-width="0.25" stroke-miterlimit="10"/>
<path d="M330.953 264.357C299.361 202.722 266.888 141.59 236.202 79.4786C227.423 61.7111 215.551 41.4842 214.369 21.3326C215.802 18.6473 217.211 15.9119 218.594 13.2016L218.896 12.9507C221.135 11.972 223.399 10.9431 225.612 9.91414C242.943 5.52244 264.197 4.29277 281.477 9.46242C283.539 10.9431 285.602 12.4488 287.639 13.9796C303.611 35.4613 305.548 64.0952 320.489 86.0035L322.124 87.0826L323.608 88.8643C325.117 89.7427 326.551 90.7214 327.884 91.8256C330.626 92.3275 333.393 92.3777 336.159 91.9762C337.342 91.4994 338.574 91.0727 339.781 90.6963C340.813 89.8681 341.945 89.1153 343.102 88.4879C344.133 87.0324 345.24 85.627 346.447 84.3221C356.986 61.8115 362.444 37.0423 374.166 15.0587C375.876 12.9507 377.561 10.8176 379.221 8.68446C381.485 7.63046 383.749 6.50116 385.962 5.32168C424.144 -2.78414 467.081 1.65775 505.942 1.9087C544.803 2.15966 590.355 -2.95981 627.783 8.23275C630.021 9.46242 632.185 10.8678 634.247 12.3735C644.912 28.8612 643.755 62.74 637.668 80.9844C623.281 105.528 569.579 117.323 544.2 127.536C513.211 140.009 482.097 152.23 451.058 164.552C434.558 171.102 417.253 176.723 401.607 185.13C400.299 186.26 398.941 187.339 397.558 188.368C396.225 190.2 395.042 192.157 394.036 194.19C394.036 195.871 393.709 197.528 392.98 199.058L393.357 200.464L393.03 203.651C394.439 207.716 396.677 211.38 399.671 214.517C401.255 215.17 402.815 215.973 404.248 216.851C441.726 235.12 482.826 247.869 521.688 263.177C540.628 270.63 559.518 278.209 578.382 285.863C594.858 292.564 626.475 300.318 636.888 315.601C649.213 333.695 643.755 379.344 638.624 399.47C637.14 402.181 635.505 404.841 633.744 407.4C631.631 408.756 629.418 409.935 627.129 410.939C594.883 419.396 557.531 415.983 524.379 416.184C491.227 416.385 446.606 422.533 413.932 411.918C411.945 410.337 409.983 408.781 408.021 407.2C375.675 365.341 355.049 311.36 330.978 264.432L330.953 264.357Z" stroke="white" stroke-width="0.25" stroke-miterlimit="10"/>
<path d="M335.305 277.13C300.166 209.322 263.971 142.066 230.014 73.6311C221.286 56.0141 208.257 35.988 206.144 16.2881C207.377 13.6781 208.534 11.0431 209.615 8.35792L209.967 8.08187C212.181 7.27882 214.419 6.45067 216.608 5.57233C237.787 1.38139 262.99 0.151716 284.194 4.56851C286.357 5.87347 288.47 7.27882 290.532 8.75945C304.945 31.8974 310.353 60.2302 321.596 84.9742C322.351 85.6518 323.08 86.3545 323.785 87.0823C330.903 93.7325 340.587 91.8253 345.894 83.9704C354.069 59.8286 361.715 34.4823 372.581 11.3694C374.266 9.23626 375.901 7.02786 377.461 4.79437C379.85 4.0917 382.215 3.21336 384.504 2.20954C446.481 -5.01794 512.054 -0.124333 574.409 0.829293C592.644 1.10534 611.157 0.929674 629.192 3.66507C631.43 4.59361 633.769 5.39666 636.109 6.02404C638.045 8.18225 639.806 10.5914 641.29 13.101C645.44 34.2564 644.988 57.5198 642.824 78.9262C642.045 82.1134 640.712 85.0746 638.8 87.7347C613.421 110.27 567.29 120.334 535.899 132.781C501.113 146.583 466.201 160.085 431.389 173.887C419.642 178.555 397.508 182.47 394.766 197.025L393.634 199.259C394.288 204.73 396.627 209.448 400.602 213.111C457.12 244.531 525.31 262.575 585.4 286.792C603.133 293.944 621.545 300.343 637.895 310.381L642.196 316.505C647.528 343.733 647.553 379.946 641.013 406.923C639.152 408.981 637.241 411.039 635.329 413.047C601.649 423.286 559.09 417.664 524.128 417.79C488.31 417.915 447.26 422.984 412.222 414.979C410.311 413.323 408.374 411.691 406.437 410.035C378.618 368.653 358.143 321.373 335.305 277.105V277.13Z" stroke="white" stroke-width="0.25" stroke-miterlimit="10"/>
<path d="M336.361 282.4C299.915 214.141 264.877 145.103 229.084 76.4922C219.048 57.244 208.232 38.0209 200.737 17.6183C200.611 15.3347 200.158 13.0259 199.403 10.8426L201.667 4.49344C223.55 -5.77059 262.588 -1.65494 286.206 0.954985C288.344 2.13447 290.482 3.33905 292.62 4.56872C304.719 30.0908 313.522 58.0471 322.401 84.9242C328.991 93.005 339.782 92.3525 345.391 83.6193C352.56 58.0471 362.47 32.9767 371.55 8.05699C373.034 5.94897 374.493 3.79077 375.927 1.63256C413.757 -8.9577 463.384 -1.05265 502.572 -0.977362C546.615 -0.902076 594.229 -5.49454 637.769 1.55727C639.756 3.11319 641.643 4.81968 643.429 6.60145C648.384 31.195 648.183 61.4851 644.259 86.1539L641.542 90.119L639.756 91.6247C574.635 123.094 504.559 146.232 437.275 172.733C424.925 177.602 397.131 182.395 395.093 197.979L394.339 199.46C396.1 222.723 459.435 235.948 478.199 243.251C512.91 256.753 547.546 270.455 582.231 284.056C602.329 291.961 626.45 298.311 643.831 311.335C650.346 339.567 650.924 384.865 642.951 412.921C640.637 414.051 638.423 415.356 636.31 416.861C599.587 421.554 560.977 418.869 523.977 418.919C486.701 418.969 447.839 421.78 410.789 417.489C409.053 415.958 407.318 414.427 405.582 412.896C379.75 371.439 358.672 325.815 336.361 282.375V282.4Z" stroke="white" stroke-width="0.25" stroke-miterlimit="10"/>
<path d="M336.16 283.128C300.921 219.26 267.996 153.861 234.366 89.1151C224.557 70.2183 213.162 51.3214 205.113 31.6466C203.604 29.8899 202.573 27.8572 202.095 25.5986C200.259 22.3613 198.574 19.1993 196.888 15.8616L196.41 13.1011C195.706 11.771 194.876 10.4912 193.971 9.28658L193.367 6.32532L192.587 5.12074L192.788 2.66138L195.505 1.13056L196.637 -0.0740166L198.548 -0.174398L198.951 0.151843C228.078 -2.85961 259.117 -2.60865 288.319 -0.776688L288.747 -0.977451C290.432 -0.801784 291.992 -0.27478 293.451 0.578464C306.782 27.029 311.712 57.5953 323.181 84.874C329.444 92.6787 339.757 91.7501 344.813 83.293C353.365 56.9177 363.854 30.7934 371.601 4.2173C372.38 2.78686 373.185 1.40661 374.015 0.0263655L373.965 -0.299875L374.493 -0.60102C375.625 -0.801784 376.757 -1.00255 377.864 -1.20331C378.996 -1.20331 380.128 -1.22841 381.259 -1.35388L381.763 -1.15312C448.896 -3.31133 516.356 -1.60484 583.514 -1.42917C602.505 -1.37898 621.52 -0.952356 640.461 -0.701402C642.196 -0.174398 643.856 0.553369 645.391 1.4819C645.592 3.74049 645.969 5.92379 646.548 8.13219C646.019 33.5288 646.548 59.2516 646.749 84.6983C646.221 86.5303 645.843 88.3622 645.642 90.2695C644.208 90.8969 642.976 91.7501 641.894 92.8543C577.553 117.649 513.564 143.698 449.223 168.718C435.011 174.239 396.955 181.416 395.345 198.983L394.968 199.736C396.2 222.196 470.15 239.512 489.367 246.99C523.801 260.391 558.11 273.968 592.544 287.419C610.227 294.32 629.192 300.343 645.818 309.428C645.894 310.808 646.145 312.163 646.548 313.493C646.875 346.293 646.019 379.243 646.422 411.968C645.768 413.674 645.265 415.406 644.938 417.213C643.051 417.539 641.266 418.091 639.555 418.919L638.549 418.743C636.99 419.17 635.38 419.12 633.82 418.618C575.289 421.554 516.104 419.572 457.498 419.496C441.325 419.471 424.673 420.35 408.626 418.819L408.475 418.869C407.217 417.79 406.161 416.535 405.306 415.105L405.255 414.603C380.404 372.292 357.289 327.421 336.085 283.128H336.16Z" stroke="white" stroke-width="0.25" stroke-miterlimit="10"/>
<path d="M400.854 295.049C404.149 331.864 427.214 367.851 464.894 375.63C494.146 381.653 538.114 380.273 561.934 360.473C563.594 357.587 565.204 354.625 566.738 351.639C566.662 348.803 566.587 345.968 566.486 343.132C565.204 340.447 563.996 337.686 562.915 334.9C537.636 297.157 462.932 273.743 419.568 273.944C416.927 274.822 414.236 275.374 411.469 275.65C409.129 277.131 406.815 278.712 404.577 280.368C402.087 284.91 400.779 289.955 400.829 295.049H400.854Z" stroke="white" stroke-width="0.25" stroke-miterlimit="10"/>
<path d="M345.743 149.846L345.995 150.724C347.454 152.932 348.963 155.141 350.522 157.274C352.962 157.976 355.402 158.654 357.867 159.307C361.162 158.453 364.482 157.65 367.802 156.897C371.248 154.814 374.946 153.133 378.794 151.954C382.039 149.846 385.535 148.265 389.233 147.236C433.552 127.862 483.581 117.874 521.94 86.4044C524.304 83.7191 526.794 81.1092 529.36 78.6499C530.517 75.8141 531.95 73.1038 533.611 70.519C533.46 67.6581 533.284 64.7972 533.108 61.9363C514.947 36.4896 456.366 37.8698 429.804 46.2015C395.621 56.9172 386.692 92.6029 365.136 116.945L363.904 118.928C362.394 120.258 360.91 121.663 359.477 123.044C357.968 125.453 356.056 127.586 353.868 129.368C352.509 131.802 350.824 134.01 348.812 135.968C347.982 138.327 347.026 140.636 345.919 142.869C345.844 145.203 345.768 147.537 345.743 149.871V149.846Z" stroke="white" stroke-width="0.25" stroke-miterlimit="10"/>
<path d="M310.755 149.696C315.685 169.872 327.205 189.949 342.624 203.977C344.435 205.106 346.221 206.386 347.856 207.766C350.069 208.168 352.157 208.971 354.069 210.15L357.389 210.326L358.194 208.042L362.344 204.429L362.57 202.521L365.815 197.553L365.865 197.251C366.746 195.595 367.525 193.889 368.179 192.132C388.176 155.317 436.319 145.756 472.287 130.824C506.596 116.57 547.168 101.663 572.849 73.7569C574.308 71.0215 575.842 68.3112 577.452 65.6511C577.93 62.8655 578.332 60.0297 578.609 57.219C577.376 54.2829 576.094 51.3216 574.761 48.4356C545.633 21.4329 480.563 24.4444 443.915 27.8323C420.145 30.0407 401.356 36.0636 386.818 56.0395C375.549 71.5234 369.689 89.9685 355.402 103.244C353.943 104.173 352.61 105.277 351.453 106.582C339.958 114.462 323.684 115.992 313.723 125.73L311.661 128.716C308.667 135.241 308.793 142.92 310.831 149.746L310.755 149.696Z" stroke="white" stroke-width="0.25" stroke-miterlimit="10"/>
<path d="M373.059 273.065C381.008 307.169 395.722 351.212 423.365 374.676C449.222 396.635 491.731 393.222 523.575 390.963C553.657 388.83 621.269 378.265 591.739 332.591C574.409 305.789 531.372 292.037 503.226 280.644C469.269 266.916 434.206 258.56 399.596 247.568L393.559 246.689L389.383 244.857L388.151 244.958C386.164 244.531 384.152 244.255 382.114 244.13L379.197 242.825C376.908 244.431 374.392 245.686 371.726 246.539C370.871 255.523 370.468 264.306 373.009 273.04L373.059 273.065Z" stroke="white" stroke-width="0.25" stroke-miterlimit="10"/>
<path d="M344.083 240.29C361.69 275.423 373.159 313.217 392.225 347.773C418.183 394.827 449.272 400.825 500.609 400.7C535.924 400.599 613.244 406.271 615.684 356.532C617.923 310.959 551.494 291.409 517.512 277.456C478.148 261.27 436.193 250.604 397.684 232.937C396.376 231.808 394.917 230.879 393.332 230.176C392.125 229.022 390.867 227.868 389.584 226.814C384.554 222.372 380.856 216.349 379.07 209.849C379.07 208.318 378.794 206.787 378.291 205.332L379.096 201.292L378.995 200.639L379.246 199.861L379.372 196.022C380.177 194.541 380.705 192.985 380.982 191.354C394.539 162.896 436.595 154.062 463.534 143.346C494.095 131.175 524.807 118.753 554.11 103.771C571.566 94.8368 592.015 84.7736 602.001 67.1064C602.881 64.371 603.711 61.6356 604.516 58.9002C604.592 56.1146 604.617 53.329 604.516 50.5434C595.939 15.2342 526.064 19.5757 498.295 18.5217C462.151 17.1665 408.625 9.76337 383.975 42.011C371.298 58.5739 367.173 81.5614 351.578 95.8908C350.27 96.8445 349.038 97.9738 347.981 99.2034C346.497 99.7806 345.038 100.559 343.756 101.462C342.246 102.114 340.737 102.892 339.329 103.746C334.122 105.201 328.79 105.929 323.357 105.929C321.445 105.628 319.433 105.553 317.496 105.728L315.282 104.95L311.811 105.076L307.485 103.62L306.378 103.821C304.316 103.47 302.203 103.269 300.115 103.244L299.109 102.817C296.544 103.67 294.028 104.699 291.588 105.854C272.799 147.186 326.979 205.909 344.108 240.215L344.083 240.29Z" stroke="white" stroke-width="0.25" stroke-miterlimit="10"/>
<path d="M345.793 265.762C362.017 300.243 376.681 335.979 396.803 368.453C424.899 413.775 474.023 407.325 522.04 406.196C567.215 405.142 643.202 406.823 624.463 338.765C614.628 303.079 559.166 288.473 528.706 276.001C486.977 258.886 443.11 246.012 402.236 227.216C400.954 226.061 399.52 225.133 397.961 224.43C396.778 223.301 395.546 222.171 394.313 221.092C390.641 217.629 387.899 213.463 386.189 208.72C385.862 207.265 385.409 205.784 384.856 204.379L385.334 200.916L385.158 199.836L385.485 198.807L385.56 195.369C396.3 165.104 450.832 154.589 477.796 143.723C512.759 129.619 548.224 115.842 581.627 98.3003C600.241 88.5131 620.79 76.1662 620.363 52.3757C619.86 24.2437 593.097 19.0239 570.384 16.2885C534.868 11.9972 498.447 11.6458 462.704 11.8717C439.689 12.0223 407.066 9.08611 388.05 24.5449C368.003 40.8318 365.337 71.8749 349.566 91.6752C348.233 92.4531 347.001 93.4318 345.919 94.5109C344.586 95.2638 343.278 96.1923 342.121 97.2212C340.561 97.5726 339.077 98.1498 337.644 98.8775C334.349 99.4798 331.003 99.7308 327.658 99.6304C325.973 99.254 324.187 99.0532 322.451 99.003L320.162 97.698L317.873 97.3216C316.566 96.3178 315.157 95.5398 313.623 94.9877L311.988 93.4067L309.372 92.3276C296.217 80.8339 287.137 66.2535 275.063 53.756C271.366 52.1248 267.492 51.1711 263.468 50.8449C261.933 54.1073 260.5 57.3948 259.192 60.7576C271.668 136.671 313.698 197.553 345.768 265.662L345.793 265.762Z" stroke="white" stroke-width="0.25" stroke-miterlimit="10"/>
<path d="M343.278 273.617C361.464 310.708 377.713 350.911 401.432 384.915C428.446 423.688 496.862 411.291 538.817 410.262C563.668 409.66 602.328 413.499 622.627 396.986C636.838 381.779 637.87 342.153 628.01 324.41C618.452 307.195 593.324 298.863 576.32 291.335C537.937 274.32 498.472 259.664 459.284 244.657C440.067 237.304 418.385 231.808 400.979 220.766C399.646 219.813 398.212 218.909 396.779 218.106C393.81 215.346 391.522 212.083 389.962 208.344C389.786 206.838 389.585 205.333 389.333 203.827V203.601L388.528 199.435C389.057 197.955 389.534 196.424 389.937 194.918C397.609 167.564 462.352 154.64 485.694 145.229C522.719 130.322 560.801 116.219 596.216 97.7235C617.32 86.7066 631.33 74.3597 629.871 48.6118C628.186 18.698 606.831 13.6037 580.798 11.0439C539.27 6.92828 496.661 7.17923 454.982 7.58076C431.037 7.80661 396.955 4.0674 379.599 23.6418C363.753 41.5098 361.891 69.0645 348.133 88.5135C346.976 89.5926 345.894 90.747 344.913 91.9766L342.071 93.3318L340.989 94.2352C339.43 94.4862 337.971 94.9881 336.587 95.741C334.424 96.0923 332.236 96.2931 330.048 96.3683C328.539 95.9166 327.029 95.4398 325.52 95.0132L320.817 93.658L318.025 90.9728L317.245 90.6717C292.846 71.8752 291.614 13.6037 249.231 25.2228C246.867 26.578 244.477 27.908 242.063 29.1879C240.201 31.9986 238.667 35.1857 237.56 38.423C239.17 76.8943 266.21 122.869 282.634 157.3C301.499 196.8 324.061 234.368 343.303 273.667L343.278 273.617Z" stroke="white" stroke-width="0.25" stroke-miterlimit="10"/>
<path d="M333.695 263.779C346.95 289.401 359.602 315.35 372.908 340.947C383.976 362.228 395.445 393.949 415.819 407.827C444.72 419.446 485.568 413.9 516.079 413.724C549.558 413.523 593.852 419.019 625.067 404.991C627.18 403.334 629.217 401.503 631.078 399.545C641.265 382.254 643.051 343.005 634.952 324.51C626.853 306.014 600.266 297.858 582.357 290.229C544.98 274.344 507.099 259.437 469.143 244.982C446.908 236.5 424.044 228.972 402.614 218.682C401.432 217.503 400.048 216.524 398.589 215.796C395.244 212.358 392.729 208.243 391.169 203.7L391.471 200.589L391.169 199.083C391.647 197.627 391.899 196.097 391.899 194.541C393.131 191.83 394.666 189.321 396.527 186.987C397.885 185.958 399.168 184.804 400.35 183.549C468.414 147.562 549.532 134.061 615.131 93.1803C638.574 78.5748 643.026 46.026 631.129 21.2066C629.418 18.9481 627.507 16.8149 625.444 14.9077C593.701 -2.18228 542.515 4.94481 507.426 4.51819C469.974 4.06647 423.717 -2.03171 387.673 9.51218C385.51 10.8171 383.322 12.097 381.133 13.3769C362.948 33.4281 360.684 63.4171 347.152 86.2289C345.944 87.2327 344.812 88.362 343.806 89.5414C342.599 90.4449 341.417 91.4487 340.31 92.4525C338.902 92.7286 337.518 93.1301 336.16 93.632C332.965 94.0084 329.796 93.9331 326.627 93.4061L323.935 91.2981L322.728 90.9468C321.596 89.8677 320.313 88.9392 318.93 88.1612C304.341 67.2818 300.191 40.0533 283.565 20.6545C270.335 9.23613 243.044 9.83842 229.159 19.6507L225.11 26.1755L224.556 28.4592C225.135 67.5328 257.708 115.063 274.434 149.77C293.022 188.342 314.579 225.383 333.645 263.729L333.695 263.779Z" stroke="white" stroke-width="0.25" stroke-miterlimit="10"/>
<path d="M328.891 260.317C353.591 308.5 374.745 363.961 407.921 406.974C409.883 408.555 411.845 410.136 413.832 411.692C446.481 422.282 489.995 416.159 524.178 415.958C557.305 415.758 594.632 419.171 626.853 410.738C629.142 409.735 631.38 408.555 633.468 407.2C635.229 404.64 636.864 401.98 638.348 399.27C643.479 379.093 646.321 346.168 640.259 325.966C633.569 303.631 605.347 297.081 585.526 288.775C547.319 272.764 508.533 258.083 469.923 243.001C448.065 234.443 425.201 227.166 404.174 216.826C402.74 215.923 401.18 215.12 399.596 214.492C396.628 211.381 394.389 207.717 392.955 203.651L393.282 200.464L392.905 199.059C393.634 197.553 393.987 195.897 393.961 194.19C394.968 192.157 396.15 190.2 397.458 188.368C398.841 187.339 400.199 186.26 401.507 185.156C458.152 154.59 523.876 136.847 583.237 111.727C600.065 104.6 627.758 97.6481 637.367 81.1102C643.479 62.8407 644.56 29.0874 633.946 12.5495C631.908 11.0438 629.72 9.66354 627.481 8.40877C590.154 -2.83398 544.426 2.33568 505.741 2.08473C467.056 1.83377 424.019 -2.60812 385.862 5.4977C383.649 6.67719 381.385 7.78139 379.121 8.86049C377.461 11.0187 375.776 13.1267 374.065 15.2347C362.344 37.1681 356.961 61.9875 346.372 84.4479C345.19 85.7528 344.058 87.1582 343.027 88.5886C341.87 89.2411 340.738 89.994 339.706 90.797C338.474 91.1484 337.267 91.575 336.084 92.0769C333.318 92.4784 330.576 92.4282 327.834 91.9263C326.501 90.8221 325.067 89.8183 323.558 88.9651L322.074 87.1833L320.439 86.1042C305.473 64.2461 303.587 35.5871 287.615 14.1556C285.577 12.6499 283.515 11.1442 281.452 9.66354C264.222 4.49389 242.918 5.69847 225.638 10.1153C223.424 11.1442 221.186 12.1731 218.922 13.1518L218.62 13.4028C217.237 16.1382 215.853 18.8485 214.394 21.5337C216.356 55.1615 241.937 90.6715 256.551 120.259C271.567 150.65 286.583 180.99 302.606 210.879C311.435 227.341 320.288 243.754 328.84 260.342L328.891 260.317Z" stroke="white" stroke-width="0.25" stroke-miterlimit="10"/>
<path d="M333.468 273.592C357.037 318.939 377.813 367.524 406.387 409.935C408.324 411.566 410.235 413.223 412.172 414.854C447.26 422.759 488.159 417.79 524.002 417.665C558.914 417.539 601.523 423.186 635.128 412.921C637.065 410.939 638.976 408.881 640.812 406.823C647.453 379.946 647.327 343.633 641.995 316.455L637.719 310.331C581.954 276.076 511.476 257.33 450.555 233.69C433.904 227.215 416.196 221.795 400.576 213.112C396.627 209.423 394.288 204.73 393.609 199.259L394.741 197.026C398.942 175.795 456.743 163.975 474.627 156.973C509.439 143.321 544.275 129.72 578.911 115.641C598.077 107.862 622.929 101.588 638.599 87.8103C640.511 85.1753 641.844 82.189 642.623 79.0018C644.787 57.6205 645.264 34.3822 641.089 13.2268C639.605 10.7172 637.844 8.30805 635.908 6.14985C633.568 5.54756 631.229 4.7445 628.99 3.81597C568.045 -5.56971 501.591 0.0516588 439.991 0.402995C421.504 0.503376 402.84 0.277518 384.479 2.36044C382.19 3.36425 379.825 4.2175 377.436 4.94527C375.876 7.17876 374.266 9.38715 372.581 11.5203C361.74 34.6582 354.169 59.9293 345.894 84.0711C340.587 91.9009 330.903 93.8583 323.785 87.183C323.08 86.4552 322.351 85.7525 321.596 85.0749C310.428 60.4061 305.096 31.8476 290.557 8.88525C288.495 7.40462 286.382 5.99927 284.219 4.71941C262.94 0.377899 237.937 1.55738 216.683 5.72322C214.495 6.60156 212.256 7.42971 210.043 8.23277L209.691 8.50882C208.634 11.194 207.477 13.829 206.22 16.439C209.867 50.7444 237.787 89.3913 253.356 119.631C269.932 151.854 286.458 184.127 303.285 216.224C313.321 235.371 323.533 254.394 333.468 273.592Z" stroke="white" stroke-width="0.25" stroke-miterlimit="10"/>
<path d="M336.084 281.899C358.873 325.389 379.599 371.163 405.557 412.847C407.292 414.378 409.028 415.909 410.763 417.439C447.814 421.63 486.599 418.895 523.901 418.87C560.876 418.82 599.511 421.555 636.184 416.812C638.272 415.331 640.485 414.001 642.799 412.897C650.773 384.84 650.219 339.568 643.68 311.361C613.597 289.001 568.724 278.837 533.912 265.085C501.591 252.312 469.194 239.638 436.822 227.04C423.34 221.795 395.596 217.379 394.313 199.511L395.068 198.03C397.835 177.101 462.126 163.122 479.984 156.096C513.463 142.921 546.967 129.796 580.395 116.545C600.291 108.665 620.363 101.011 639.63 91.7008L641.416 90.1951L644.107 86.23C648.031 61.5612 648.232 31.2961 643.277 6.70264C641.491 4.92086 639.58 3.23947 637.618 1.65846C594.103 -5.41845 546.514 -0.800892 502.471 -0.876178C463.056 -0.951465 414.008 -8.60557 375.876 1.73375C374.468 3.89195 373.009 6.05016 371.525 8.15817C362.47 33.103 352.61 58.1483 345.366 83.6954C339.807 92.5039 328.991 93.0058 322.401 85.0004C313.522 58.1483 304.718 30.1669 292.62 4.66991C290.507 3.44023 288.369 2.23565 286.206 1.05617C262.637 -1.55375 223.55 -5.71959 201.717 4.59462L199.453 10.9438C200.208 13.1271 200.661 15.4358 200.786 17.7195C226.744 88.9403 270.787 156.974 306.001 224.054C316.113 243.302 325.973 262.676 336.084 281.924V281.899Z" stroke="white" stroke-width="0.25" stroke-miterlimit="10"/>
<path d="M334.776 280.895C358.345 325.264 379.825 371.289 405.305 414.553L405.355 415.055C406.211 416.486 407.267 417.74 408.525 418.819L408.676 418.769C465.848 424.265 525.989 419.547 583.514 419.346C600.266 419.296 617.093 419.422 633.82 418.568C635.379 419.07 636.989 419.121 638.549 418.694L639.555 418.87C641.265 418.041 643.051 417.464 644.937 417.163C645.264 415.356 645.742 413.625 646.421 411.918C646.069 379.194 646.824 346.243 646.547 313.469C646.145 312.139 645.893 310.784 645.818 309.403C584.118 276.077 511.35 255.348 445.877 229.951C431.515 224.38 396.074 218.131 395.018 199.762L395.395 199.009C397.13 177.828 472.715 159.534 491.957 152.03C525.335 139.056 558.612 125.856 591.965 112.806C608.667 106.281 625.192 99.3297 641.869 92.9053C642.95 91.8011 644.183 90.9227 645.617 90.3204C645.818 88.4132 646.195 86.5812 646.723 84.7492C646.522 59.3025 646.019 33.6048 646.522 8.20822C645.943 6.02492 645.566 3.81653 645.365 1.55794C643.831 0.654503 642.145 -0.0983595 640.435 -0.625363C573.528 -1.62918 506.445 -1.5288 439.463 -1.5288C420.246 -1.5288 401.004 -1.72956 381.787 -1.10218L381.284 -1.30294C380.152 -1.20256 379.02 -1.15237 377.888 -1.15237C376.782 -0.951604 375.625 -0.75084 374.518 -0.550077L373.99 -0.248932L374.04 0.0773087C373.21 1.45756 372.405 2.8629 371.625 4.26824C364.004 30.8694 353.389 56.9686 344.863 83.3188C339.807 91.8513 329.494 92.6292 323.231 84.8998C311.761 57.6211 306.831 27.0549 293.5 0.604312C292.067 -0.248932 290.482 -0.775936 288.797 -0.951604L288.369 -0.75084C259.141 -2.6079 228.153 -2.73338 199.001 0.17769L198.598 -0.14855L196.687 -0.0481689L195.555 1.15641L192.838 2.68723L192.637 5.14658L193.417 6.35116L194.02 9.31242C194.951 10.517 195.756 11.7969 196.46 13.1269L196.938 15.8874C198.548 19.2502 200.233 22.4122 202.145 25.6244C202.623 27.883 203.629 29.9158 205.163 31.6724C232.706 99.154 273.353 164.226 307.485 228.722C316.666 246.063 325.772 263.504 334.801 280.895H334.776Z" stroke="white" stroke-width="0.25" stroke-miterlimit="10"/>
<path d="M86.4407 116.243C54.6222 177.25 22.5774 238.157 -9.34175 299.113C-18.5729 316.705 -27.7789 334.322 -37.01 351.914C11.1076 260.065 59.2252 168.191 107.343 76.3413C121.001 50.2671 134.659 24.193 148.317 -1.90625C127.692 37.4685 107.066 76.8683 86.4156 116.243H86.4407Z" stroke="white" stroke-width="0.25" stroke-miterlimit="10"/>
<path d="M-37.01 351.914L-36.7333 350.835M-37.01 351.914C11.1076 260.065 59.2252 168.191 107.343 76.3413C121.001 50.2671 134.659 24.193 148.317 -1.90625M-37.01 351.914V-1.90625H148.317M148.317 -1.90625L147.638 -1.50472" stroke="white" stroke-width="0.25" stroke-miterlimit="10"/>
<path d="M-36.7585 350.835L-37.01 351.914M-37.01 351.914V-1.90625H148.342M-37.01 351.914C-23.3268 325.79 -9.61844 299.64 4.06477 273.516C52.1572 181.692 100.25 89.8928 148.342 -1.90625M148.342 -1.90625L147.663 -1.50472" stroke="white" stroke-width="0.25" stroke-miterlimit="10"/>
<path d="M2.78229 140.309C-9.21567 114.637 -14.5481 57.645 12.5668 39.777C26.7279 30.4415 57.2636 30.1906 68.1045 45.1223C79.524 60.8572 66.8217 85.9526 59.2255 100.734C50.6484 117.472 34.5505 149.896 12.768 149.745C11.3343 149.193 9.95089 148.566 8.61778 147.813C7.61166 146.709 6.53009 145.63 5.44851 144.601C4.59331 143.145 3.6878 141.69 2.78229 140.284V140.309Z" stroke="white" stroke-width="0.25" stroke-miterlimit="10"/>
<path d="M-3.60664 174.565L-4.83914 172.833C-19.1763 142.317 -29.4639 56.4407 -1.64472 31.4959C15.3587 16.2378 66.8719 14.8325 82.5422 32.9514C99.5959 52.7015 76.1785 91.2481 66.218 109.994C55.5783 130.046 32.186 182.269 4.89505 181.968C3.53679 181.265 2.17853 180.613 0.769969 180.011C-0.185844 178.856 -1.24227 177.802 -2.37415 176.798L-3.6318 174.54L-3.60664 174.565Z" stroke="white" stroke-width="0.25" stroke-miterlimit="10"/>
<path d="M-6.80112 204.303C-7.58087 202.973 -8.46122 201.718 -9.49249 200.563C-23.6788 172.105 -22.2702 132.906 -22.6978 101.938C-23.0751 74.7351 -28.2314 29.8895 2.43001 17.8939C24.0112 9.43677 90.0629 6.97742 99.0174 34.6075C106.915 59.0253 79.1465 99.7301 67.9786 120.258C54.4212 145.178 31.532 198.807 1.80119 207.691C0.0907851 207.691 -1.59446 207.44 -3.25456 206.963C-4.36129 205.959 -5.54348 205.056 -6.80112 204.303Z" stroke="white" stroke-width="0.25" stroke-miterlimit="10"/>
<path d="M-16.7367 217.353C-25.8924 187.966 -25.7918 154.991 -26.6721 124.4C-27.4519 97.0706 -36.0542 45.0227 -18.271 22.3616C-0.487894 -0.299583 86.2898 0.503471 103.721 20.3289C123.491 42.8143 81.5359 104.398 70.3428 125.303C54.5468 154.79 29.6957 218.708 -4.16023 229.901C-5.79517 229.725 -7.45526 229.399 -9.0399 228.947C-10.0712 227.868 -11.1779 226.864 -12.3601 225.986C-13.0141 224.555 -13.8441 223.2 -14.7999 221.971C-15.2778 220.364 -15.9067 218.834 -16.7116 217.353H-16.7367Z" stroke="white" stroke-width="0.25" stroke-miterlimit="10"/>
<path d="M-26.4202 203.124C-29.5895 162.87 -30.7717 122.366 -30.3441 81.9378C-30.168 64.7223 -32.4821 42.2619 -26.1938 26.1005C-17.8682 4.69408 5.47376 6.14961 25.5961 5.54732C56.9367 4.61879 126.862 -3.41174 112.424 44.2695C101.357 80.7834 79.4486 115.641 61.1373 148.917C44.7124 178.756 23.4833 233.815 -8.33522 249.726C-10.0959 249.851 -11.8566 249.676 -13.5419 249.249C-14.4977 248.12 -15.6044 247.116 -16.7866 246.212C-17.3903 244.732 -18.17 243.351 -19.1007 242.047C-19.5786 240.415 -20.1571 238.784 -20.8362 237.228C-23.9049 226.111 -25.238 214.592 -26.4202 203.124Z" stroke="white" stroke-width="0.25" stroke-miterlimit="10"/>
<path d="M-23.025 259.864C-23.5029 258.685 -23.9556 257.505 -24.3832 256.326C-34.2684 210.527 -32.2561 160.938 -32.5831 114.236C-32.7843 83.9958 -44.5559 12.6997 -7.80744 4.79463C15.3584 -0.199358 101.784 -7.45193 118.762 11.9719C137.526 33.4536 83.3217 112.705 72.179 133.584C50.6732 173.837 30.4251 219.235 1.34824 254.594C-2.39956 259.137 -6.07189 263.453 -10.6749 267.142L-14.5233 268.322H-17.0889C-18.095 267.242 -19.2269 266.289 -20.5097 265.511C-21.0127 263.955 -21.7422 262.55 -22.7231 261.245L-22.9998 259.864H-23.025Z" stroke="white" stroke-width="0.25" stroke-miterlimit="10"/>
<path d="M-26.2195 278.234C-26.6471 277.13 -27.0747 276.001 -27.5023 274.897C-38.9469 210.451 -34.6961 140.586 -34.3439 75.1621C-34.2433 55.663 -38.8212 24.9964 -27.7539 7.806C-26.6471 6.95276 -25.5153 6.12461 -24.3582 5.34665C-3.60704 -1.93102 22.5772 0.929859 44.3345 1.00515C69.3617 1.10553 100.048 -2.30745 123.441 7.17862C124.472 8.13224 125.553 9.03568 126.66 9.88892L127.641 11.495C127.968 12.8753 128.32 14.2555 128.672 15.6358C125.226 52.0743 96.0238 92.1517 79.2971 123.922C59.9796 160.612 40.4358 197.201 19.8104 233.163C10.0007 250.303 0.241362 271.057 -15.1019 283.931C-16.2338 284.433 -17.3154 285.06 -18.3467 285.788L-19.7804 286.24C-21.0129 285.386 -22.346 284.684 -23.7546 284.157C-24.2073 282.576 -24.9619 281.17 -25.968 279.916L-26.2195 278.234Z" stroke="white" stroke-width="0.25" stroke-miterlimit="10"/>
<path d="M-28.8852 298.185L-29.0109 296.654C-29.4637 295.6 -29.841 294.496 -30.1177 293.392L-30.2937 293.066C-30.2434 291.133 -30.5704 289.251 -31.2244 287.444C-38.0157 218.884 -35.7519 148.24 -35.5507 79.2024C-35.4753 56.2652 -38.8961 29.0116 -32.0545 6.90254C-31.1489 5.72305 -30.1177 4.61885 -29.0612 3.58994C-7.3291 -4.59117 23.0054 -0.375135 46.0706 -0.299849C71.6512 -0.224563 108.978 -6.12199 131.742 5.87362L133.729 9.33679C134.232 45.4742 95.0183 96.719 78.5682 127.963C57.968 167.112 37.3174 206.286 15.8368 244.958C5.27254 263.98 -5.01503 286.014 -20.5092 301.498L-22.8485 302.501L-26.5208 302.225L-27.4012 299.942L-28.8852 298.185Z" stroke="white" stroke-width="0.25" stroke-miterlimit="10"/>
<path d="M-34.5195 292.84C-35.9784 252.511 -36.0035 211.957 -36.2299 171.478C-36.4311 135.742 -36.406 100.032 -36.3557 64.2956C-36.3305 44.9722 -39.6004 20.9057 -33.4882 2.53583C-32.3061 1.88335 -31.1239 1.25596 -29.9417 0.653672C18.4778 -7.22629 84.8564 -6.72438 133.125 1.25596C134.307 1.68258 135.489 2.08411 136.671 2.48564L136.898 2.63621C137.577 4.06665 138.281 5.47199 139.011 6.87734C130.333 47.8331 98.6402 91.5242 79.2976 128.389C58.5213 168.015 37.5689 207.565 16.4655 247.015C4.01481 270.279 -7.68131 296.679 -24.7853 316.68L-27.2755 318.487L-27.6276 318.939L-28.7343 319.391L-29.0613 318.387L-31.6269 316.078V315.024C-32.13 314.02 -32.3815 312.941 -32.3815 311.812L-32.9097 310.883L-32.8343 308.625C-33.1613 307.571 -33.4128 306.466 -33.5889 305.412L-33.6895 305.136C-33.8907 301.021 -34.1925 296.93 -34.5447 292.789L-34.5195 292.84Z" stroke="white" stroke-width="0.25" stroke-miterlimit="10"/>
<path d="M-34.3182 333.72C-34.3937 332.917 -34.3685 332.089 -34.1925 331.286C-34.5446 330.659 -34.8716 330.056 -35.2237 329.429C-34.8213 327.697 -34.9722 325.991 -35.601 324.335L-35.3747 322.728L-35.7519 321.75L-35.3998 320.57C-35.8023 319.165 -35.9783 317.684 -35.9029 316.254L-36.0286 315.777L-35.6513 314.472C-36.0286 312.464 -36.0789 310.457 -35.8526 308.424L-36.2299 306.918C-36.0286 301.523 -36.1041 296.102 -36.4562 290.707C-35.7268 252.838 -36.6323 214.668 -36.7329 176.648C-36.8335 138.628 -36.8587 101.362 -36.8084 63.7186C-36.8084 43.2156 -37.563 22.4868 -36.1544 2.05912C-35.6262 1.25607 -35.1734 0.453015 -34.7458 -0.400229C-33.8655 -0.575897 -32.9851 -0.776661 -32.0796 -0.977424L-31.6269 -1.20328C12.6675 -2.182 57.0876 -1.90595 101.407 -1.57971C114.612 -1.47933 128.019 -1.88086 141.124 -0.199466L141.3 -0.249657H141.652C142.105 1.30626 142.708 2.83708 143.387 4.31771C128.27 43.5419 104.652 81.1097 85.108 118.376C65.0611 156.622 44.989 194.842 24.9421 233.037C14.2773 253.365 3.71304 273.918 -7.50518 293.894C-7.78186 295.123 -8.38553 296.177 -9.26588 297.081C-14.0198 307.295 -19.8301 317.308 -25.7914 326.844C-26.6214 327.747 -27.3006 328.776 -27.8036 329.906L-28.7846 330.633L-30.0674 332.691L-32.9851 333.595L-33.5385 334.147L-34.3434 333.77L-34.3182 333.72Z" stroke="white" stroke-width="0.25" stroke-miterlimit="10"/>
<path d="M2.90777 139.632C3.83843 141.363 4.84455 143.07 5.92613 144.726C7.03286 145.755 8.08928 146.809 9.0954 147.938C10.4285 148.666 11.8119 149.319 13.2456 149.871C42.1212 150.197 78.7439 80.5824 72.2293 54.709C66.9472 33.7292 38.1974 29.8395 20.3136 36.7407C-0.110582 44.6207 -4.26082 65.2742 -5.11602 85.0494C-5.89576 103.018 -4.4872 123.094 2.90777 139.657V139.632Z" stroke="white" stroke-width="0.25" stroke-miterlimit="10"/>
<path d="M-4.3607 172.883C-3.40489 174.138 -2.57484 175.468 -1.87056 176.874C-0.738674 177.852 0.292599 178.931 1.24841 180.061C2.63182 180.663 4.01523 181.315 5.34834 182.018C39.1539 182.244 96.7039 75.6135 88.0764 43.6921C80.6814 16.2378 28.0363 16.2377 7.1342 26.552C-17.7672 38.8738 -16.082 73.5055 -15.8304 97.3963C-15.5789 121.287 -14.9501 150.297 -4.38585 172.883H-4.3607Z" stroke="white" stroke-width="0.25" stroke-miterlimit="10"/>
<path d="M-7.7573 202.195L-6.39904 204.328C-5.11624 205.106 -3.93405 205.984 -2.85247 206.988C-1.19238 207.439 0.467718 207.69 2.20327 207.716C29.3936 199.459 49.4657 154.011 62.3943 131.074C76.1027 106.732 98.1115 74.3836 99.4949 45.7748C101.306 8.33248 41.0646 11.1432 15.0816 15.5851C-23.6791 22.2102 -22.1448 58.2975 -22.346 90.6454C-22.5724 124.574 -24.7859 169.395 -9.06525 200.614L-7.73215 202.22L-7.7573 202.195Z" stroke="white" stroke-width="0.25" stroke-miterlimit="10"/>
<path d="M-16.4596 216.825C-15.7301 218.482 -15.0258 220.213 -14.4473 221.945C-13.4915 223.199 -12.6866 224.53 -12.0075 225.96C-10.8253 226.863 -9.71857 227.842 -8.71245 228.921C-7.12781 229.373 -5.46772 229.699 -3.85793 229.875C27.3066 219.812 50.4222 162.193 65.0863 135.566C78.8953 110.446 112.525 63.7934 108.777 33.704C104.576 0.0761375 19.6852 2.91192 -4.78859 13.5775C-35.8525 27.1039 -27.1999 84.7481 -26.6214 113.006C-25.8919 146.935 -26.722 184.251 -16.4847 216.85L-16.4596 216.825Z" stroke="white" stroke-width="0.25" stroke-miterlimit="10"/>
<path d="M-26.1438 202.873C-24.9364 214.417 -23.6285 226.011 -20.5347 237.203C-19.8556 238.759 -19.277 240.39 -18.7991 242.022C-17.8685 243.326 -17.0887 244.707 -16.4851 246.187C-15.3029 247.091 -14.1961 248.095 -13.2403 249.224C-11.5299 249.651 -9.79437 249.826 -8.03366 249.701C20.0622 235.723 38.4993 190.024 53.1886 163.749C72.4055 129.368 92.5279 94.4605 107.469 57.9467C116.297 36.3897 123.365 16.74 95.6217 9.28668C78.5428 4.69422 58.6468 5.62275 41.0649 5.59765C24.9922 5.59765 -3.98404 2.31015 -17.3906 12.8C-32.1805 24.369 -29.3634 52.1245 -29.791 68.9887C-30.8977 113.608 -29.4891 158.429 -26.1438 202.873Z" stroke="white" stroke-width="0.25" stroke-miterlimit="10"/>
<path d="M-23.8289 257.104C-23.2001 258.409 -22.7474 259.789 -22.4707 261.22C-21.4897 262.525 -20.7351 263.93 -20.2572 265.486C-18.9996 266.264 -17.8677 267.192 -16.8616 268.296H-14.296L-10.4476 267.117C22.8047 240.39 42.6 188.92 62.5966 151.854C73.5885 131.501 84.4294 111.074 94.8679 90.4202C103.873 72.6275 120.574 48.3352 121.983 28.0079C124.473 -7.95384 33.5701 2.08433 8.3417 3.64024C-22.194 5.4973 -29.765 15.2092 -31.5509 44.9473C-32.6576 63.3422 -32.4815 81.8877 -32.4061 100.308C-32.2049 146.057 -33.3871 193.111 -27.1994 238.483C-26.3945 244.481 -25.4136 250.378 -24.1308 256.276C-23.9798 256.527 -23.8792 256.803 -23.8541 257.079L-23.8289 257.104Z" stroke="white" stroke-width="0.25" stroke-miterlimit="10"/>
<path d="M-27.1999 275.072C-26.4704 276.577 -25.9674 278.183 -25.741 279.84C-24.7097 281.095 -23.9803 282.525 -23.5275 284.081C-22.119 284.608 -20.7859 285.311 -19.5534 286.164L-18.1196 285.712C-17.1135 285.009 -16.0068 284.382 -14.8749 283.855C13.0449 260.416 30.4004 215.094 47.4793 183.775C67.0734 147.813 86.2651 111.575 104.677 75.011C113.833 56.867 126.862 36.2637 128.799 15.7356C128.447 14.3554 128.094 12.9751 127.767 11.5949L126.787 9.98877C125.68 9.13553 124.623 8.23209 123.592 7.27847C100.25 -2.2076 69.5384 1.18028 44.5364 1.10499C22.8042 1.02971 -3.38002 -1.85626 -24.106 5.42141C-25.2631 6.22446 -26.395 7.05261 -27.5017 7.88076C-44.0775 33.7039 -34.1924 87.0819 -34.0415 117.297C-33.8654 149.67 -33.6893 182.043 -32.482 214.366C-31.7274 234.618 -30.847 254.92 -27.3005 274.821C-27.2502 274.896 -27.225 274.971 -27.225 275.072H-27.1999Z" stroke="white" stroke-width="0.25" stroke-miterlimit="10"/>
<path d="M-28.8595 296.603L-28.7338 298.134L-27.2497 299.891L-26.3694 302.175L-22.6971 302.451L-20.3578 301.447C8.06501 273.089 25.6721 227.39 44.4613 192.457C65.3131 153.735 85.7373 114.762 105.86 75.6383C115.544 56.7666 134.106 30.8681 133.805 9.38645L131.818 5.92328C109.104 -6.04723 71.7523 -0.149812 46.1969 -0.200003C23.1316 -0.250194 -7.17768 -4.46622 -28.8847 3.68979C-29.9663 4.7187 -30.9724 5.8229 -31.8779 7.00238C-43.7501 44.9968 -35.4244 96.4424 -35.2484 136.018C-35.1226 164.501 -34.9465 192.984 -34.3932 221.443C-33.9656 243.502 -33.1607 265.535 -31.073 287.393C-30.3939 289.2 -30.092 291.082 -30.1423 293.015L-29.9663 293.341C-29.6896 294.445 -29.3123 295.549 -28.8595 296.603Z" stroke="white" stroke-width="0.25" stroke-miterlimit="10"/>
<path d="M-34.3937 292.689C-34.0164 296.855 -33.7397 300.97 -33.5385 305.136L-33.4379 305.412C-33.2618 306.491 -33.0103 307.596 -32.6833 308.625L-32.7587 310.883L-32.2305 311.812C-32.2305 312.941 -31.9538 314.02 -31.4508 315.024V316.078L-28.9103 318.387L-28.5834 319.39L-27.4766 318.939L-27.1245 318.487L-24.6343 316.68C4.94554 282.074 24.3888 232.736 45.6179 192.608C66.4445 153.259 87.0951 113.784 107.645 74.3086C118.637 53.2034 134.005 30.216 139.111 6.97766C138.382 5.57231 137.678 4.16697 136.999 2.73653L136.772 2.58596C135.59 2.20953 134.383 1.78291 133.226 1.35629C84.9319 -6.67425 18.5784 -7.15106 -29.8158 0.678709C-30.998 1.30609 -32.1802 1.93348 -33.3624 2.56086C-43.3481 33.5035 -36.3808 77.1695 -36.2802 109.568C-36.1544 149.846 -36.1292 190.124 -35.7771 230.377C-35.601 251.156 -35.1734 271.96 -34.3937 292.664V292.689Z" stroke="white" stroke-width="0.25" stroke-miterlimit="10"/>
<path d="M-34.3181 333.193V333.72L-33.4629 334.097L-32.9095 333.544L-29.9918 332.641L-28.709 330.583L-27.728 329.855C-27.225 328.726 -26.5458 327.697 -25.7158 326.794C-19.7294 317.258 -13.9442 307.244 -9.19029 297.031C-8.30994 296.127 -7.73142 295.073 -7.42959 293.844C12.7431 257.832 31.4066 220.791 50.6486 184.202C71.0477 145.379 91.3713 106.531 111.695 67.6836C122.561 46.8795 134.961 26.1507 143.463 4.31766C142.784 2.83703 142.18 1.30621 141.727 -0.249706H141.375L141.199 -0.199515C97.408 -5.7707 50.6738 -1.80562 6.60577 -1.65505C-6.12163 -1.60486 -18.8742 -1.47938 -31.5513 -1.17824L-32.004 -0.952377C-32.8844 -0.726519 -33.7647 -0.550851 -34.6702 -0.375183C-35.0978 0.478062 -35.5758 1.28112 -36.0788 2.08417C-38.569 39.0246 -36.7579 76.7179 -36.7328 113.784C-36.7076 150.85 -36.6322 189.321 -36.607 227.065C-36.607 248.27 -35.953 269.551 -36.3806 290.656C-36.0285 296.052 -35.953 301.473 -36.1543 306.868L-35.777 308.374C-36.0285 310.407 -35.953 312.414 -35.5758 314.422L-35.953 315.727L-35.8273 316.204C-35.9027 317.634 -35.7267 319.14 -35.3242 320.52L-35.6764 321.699L-35.2991 322.678L-35.5254 324.284C-34.8966 325.941 -34.7457 327.647 -35.1481 329.379C-34.796 329.981 -34.4439 330.608 -34.1169 331.236L-34.2929 333.168L-34.3181 333.193Z" stroke="white" stroke-width="0.25" stroke-miterlimit="10"/>
<path d="M242.867 418.918L243.345 419.822C225.914 386.57 211.225 346.443 189.065 316.203C158.227 274.143 134.156 337.91 121.831 361.45C111.644 380.899 101.457 400.373 91.2703 419.822C108.676 386.596 123.315 346.342 145.525 316.203C176.212 274.519 199.931 336.932 212.281 360.546C222.468 379.995 232.655 399.47 242.867 418.918Z" stroke="white" stroke-width="0.25" stroke-miterlimit="10"/>
<path d="M91.6472 419.596L91.2448 419.822M91.2448 419.822H243.32M91.2448 419.822C101.432 400.373 111.619 380.899 121.806 361.45C134.131 337.911 158.202 274.143 189.039 316.203C211.199 346.443 225.889 386.571 243.32 419.822M243.32 419.822L242.942 419.571" stroke="white" stroke-width="0.25" stroke-miterlimit="10"/>
<path d="M91.2448 419.822L91.622 419.596M91.2448 419.822C108.651 386.571 123.34 346.443 145.5 316.203C176.312 274.143 200.409 337.911 212.734 361.45C222.92 380.899 233.107 400.373 243.32 419.822M91.2448 419.822H243.32M243.32 419.822L242.942 419.596" stroke="white" stroke-width="0.25" stroke-miterlimit="10"/>
<path d="M142.205 390.586C131.917 373.346 153.624 335.251 174.853 344.411C195.277 353.244 203.05 389.532 179.984 397.462C168.741 401.327 150.555 399.395 142.23 390.586H142.205Z" stroke="white" stroke-width="0.25" stroke-miterlimit="10"/>
<path d="M135.816 400.248C114.738 385.517 149.323 324.259 172.967 331.236C198.095 338.664 218.494 394.426 188.184 404.113C173.344 408.856 149.524 407.576 135.816 400.248Z" stroke="white" stroke-width="0.25" stroke-miterlimit="10"/>
<path d="M125.73 402.532C109.18 381.678 152.04 307.571 179.96 327.647C192.864 336.907 202.975 360.924 208.031 375.328C215.929 397.939 209.439 406.547 185.846 409.559C168.365 411.792 140.571 413.448 125.705 402.507L125.73 402.532Z" stroke="white" stroke-width="0.25" stroke-miterlimit="10"/>
<path d="M120.548 406.521C102.866 388.252 149.977 302.35 178.752 320.243C193.517 329.428 204.333 358.087 210.873 373.446C221.537 398.491 218.142 409.734 189.719 412.544C169.672 414.527 138.306 417.338 120.548 406.521Z" stroke="white" stroke-width="0.25" stroke-miterlimit="10"/>
<path d="M114.512 408.68C104.274 394.075 126.032 362.705 133.301 349.204C143.513 330.232 158.881 297.307 183.104 319.642C197.592 332.992 207.904 360.171 215.551 378.039C227.901 406.923 218.091 413.348 188.637 414.954C167.509 416.083 133.074 420.4 114.537 408.68H114.512Z" stroke="white" stroke-width="0.25" stroke-miterlimit="10"/>
<path d="M111.317 412.093C98.7659 399.269 125.478 360.572 132.421 347.548C142.205 329.203 157.272 294.195 182.173 314.874C197.969 327.998 208.584 358.816 217.136 377.11C220.909 385.166 231.423 401.779 225.285 410.362C219.852 417.94 200.057 416.259 191.832 416.585C167.559 417.564 134.106 421.655 111.317 412.093Z" stroke="white" stroke-width="0.25" stroke-miterlimit="10"/>
<path d="M106.388 413.623C105.683 413.172 105.08 412.595 104.627 411.892C100.326 388.804 131.591 342.478 144.343 323.28C173.496 279.438 196.838 334.723 210.194 360.622C217.312 374.424 232.63 395.655 230.065 411.541C229.637 412.318 229.084 412.946 228.354 413.448C211.15 421.453 186.047 418.09 167.383 418.09C148.72 418.09 123.844 421.303 106.362 413.623H106.388Z" stroke="white" stroke-width="0.25" stroke-miterlimit="10"/>
<path d="M101.608 414.728L100.854 413.674C99.3445 388.578 130.232 343.181 143.89 322.05C173.118 276.803 196.837 333.067 210.47 359.267C218.947 375.604 230.618 393.196 234.29 411.365C234.064 412.118 233.888 412.896 233.762 413.699L233.234 414.527C232.58 414.929 231.951 415.38 231.372 415.907C211.829 421.755 187.757 418.919 167.459 418.919C147.034 418.919 123.34 421.529 103.545 416.033C102.967 415.556 102.338 415.129 101.659 414.753L101.608 414.728Z" stroke="white" stroke-width="0.25" stroke-miterlimit="10"/>
<path d="M100.702 417.839C99.9982 417.689 99.319 417.438 98.6902 417.086C98.162 416.359 97.6589 415.631 97.1307 414.903C103.419 384.789 127.113 346.518 143.84 320.645C173.898 274.143 198.522 335.25 212.029 361.174C220.707 377.787 233.837 396.483 237.308 414.928L236.076 416.936C205.364 426.422 162.428 419.746 130.333 419.345C120.448 419.219 110.462 419.37 100.677 417.889L100.702 417.839Z" stroke="white" stroke-width="0.25" stroke-miterlimit="10"/>
<path d="M95.6218 418.743L94.2887 417.162L94.163 416.535L94.4145 416.209C94.4145 415.707 94.5151 415.23 94.666 414.753L95.1439 414.176C107.569 383.083 125.227 350.358 142.733 321.775C172.69 272.914 197.743 333.068 212.206 360.698C220.506 376.558 229.31 392.293 236.831 408.504C237.308 409.031 237.61 409.659 237.736 410.361C238.214 410.914 238.516 411.541 238.642 412.244C239.094 412.796 239.396 413.448 239.497 414.176L239.799 414.578C239.975 415.105 240.151 415.657 240.302 416.209L240.352 416.284C239.849 417.137 239.346 417.99 238.868 418.844C238.818 418.844 238.792 418.844 238.742 418.844C202.119 422.257 164.113 419.873 127.34 419.672C116.926 419.622 106.463 419.797 96.0997 418.894H96.0243H95.8734L95.5967 418.743H95.6218Z" stroke="white" stroke-width="0.25" stroke-miterlimit="10"/>
<path d="M141.501 389.08C154.832 406.923 195.882 401.829 194.7 376.708C193.643 354.047 170.427 331.863 152.015 351.512C143.714 360.371 136.395 377.411 141.501 389.105V389.08Z" stroke="white" stroke-width="0.25" stroke-miterlimit="10"/>
<path d="M135.464 399.721C159.233 413.197 213.186 411.19 202.521 374.073C192.963 340.822 166.276 313.543 142.859 351.588C135.615 363.383 121.152 388.478 135.464 399.721Z" stroke="white" stroke-width="0.25" stroke-miterlimit="10"/>
<path d="M125.68 402.155C147.513 418.793 220.456 418.843 209.867 379.845C205.767 364.763 196.058 345.314 185.494 333.619C167.082 313.217 153.197 326.166 141.3 345.489C133.201 358.639 114.562 387.424 125.68 402.155Z" stroke="white" stroke-width="0.25" stroke-miterlimit="10"/>
<path d="M119.944 405.844C135.564 416.46 162.805 413.774 180.89 412.921C205.011 411.767 223.524 409.107 214.242 381.276C208.432 363.834 197.616 340.169 184.914 326.668C165.219 305.688 151.108 322.753 139.614 342.227C131.514 355.954 107.996 390.636 119.919 405.844H119.944Z" stroke="white" stroke-width="0.25" stroke-miterlimit="10"/>
<path d="M114.436 408.379C130.836 419.32 160.542 415.631 179.507 415.129C202.748 414.527 228.933 416.208 219.224 386.495C212.784 366.846 200.988 344.511 188.99 327.697C168.591 299.088 151.235 317.357 137.879 340.972C129.528 355.728 104.099 391.966 114.462 408.379H114.436Z" stroke="white" stroke-width="0.25" stroke-miterlimit="10"/>
<path d="M111.116 411.791C131.138 420.65 159.887 417.112 181.393 416.71C208.458 416.208 234.718 418.392 220.883 385.09C212.382 364.612 201.667 340.872 188.411 323.029C167.584 294.997 150.229 315.224 137.552 338.061C129.805 352.014 98.3382 397.663 111.116 411.766V411.791Z" stroke="white" stroke-width="0.25" stroke-miterlimit="10"/>
<path d="M105.306 412.57C121.605 421.98 148.921 418.015 167.384 418.015C185.846 418.015 211.2 421.403 228.405 413.373C229.109 412.871 229.687 412.218 230.115 411.465C233.586 387.901 203.252 343.03 190.373 323.531C161.246 279.388 137.854 334.397 124.372 360.572C117.329 374.249 101.483 396.132 104.702 411.817L105.281 412.57H105.306Z" stroke="white" stroke-width="0.25" stroke-miterlimit="10"/>
<path d="M100.904 413.598L101.659 414.652C102.338 415.004 102.967 415.43 103.545 415.932C123.34 421.428 147.009 418.818 167.434 418.818C187.707 418.818 211.778 421.654 231.322 415.807C231.901 415.28 232.529 414.828 233.183 414.427L233.712 413.598C233.837 412.82 234.014 412.042 234.24 411.264C228.404 382.38 206.396 344.737 189.769 320.369C159.988 276.753 136.219 335.828 123.19 360.998C115.619 375.629 99.8728 396.86 100.879 413.573L100.904 413.598Z" stroke="white" stroke-width="0.25" stroke-miterlimit="10"/>
<path d="M99.5205 417.413C132.748 424.264 171.886 419.722 205.767 419.22C215.803 419.069 226.543 419.797 236.126 416.836L237.359 414.853C231.724 385.115 207.251 346.268 190.801 320.745C160.793 274.193 136.194 334.924 122.611 360.999C113.858 377.812 101.08 396.233 97.2064 414.853C97.7346 415.581 98.2377 416.309 98.7659 417.037L99.5205 417.413Z" stroke="white" stroke-width="0.25" stroke-miterlimit="10"/>
<path d="M94.3135 417.137L95.6466 418.718L95.9233 418.869H96.0742H96.1497C132.848 421.981 170.653 419.848 207.477 419.647C217.915 419.597 228.379 419.797 238.767 418.819C238.817 418.819 238.842 418.819 238.893 418.819C239.396 417.966 239.899 417.112 240.377 416.259L240.326 416.184C240.175 415.632 240.025 415.105 239.823 414.553L239.522 414.151C239.396 413.448 239.119 412.771 238.666 412.219C238.541 411.516 238.239 410.864 237.786 410.337C237.66 409.634 237.358 409.006 236.88 408.479C223.071 378.741 208.382 342.78 188.989 316.43C157.447 273.617 132.898 340.496 120.372 364.462C111.845 380.774 102.035 397.061 95.1939 414.126L94.716 414.703C94.565 415.18 94.4896 415.657 94.4644 416.159L94.2129 416.485L94.3387 417.112L94.3135 417.137Z" stroke="white" stroke-width="0.25" stroke-miterlimit="10"/>
<path d="M47.4531 48.4844H45.5312L40.3125 35.5625L35.1406 48.4844H33.2188L26.2812 28.5938L24.4531 28.1875V27.0469H33.8594V28.1875L31.4062 28.5938L35.875 41.0781L40.7812 28.8281H42.7344L47.6562 41.0469L51.3594 28.5938L48.7188 28.1875V27.0469H55.5V28.1875L53.6719 28.5938L47.4531 48.4844ZM62.2188 46.5938L63.8281 46.9688V48H56.1094V46.9688L57.7031 46.5938V34.7188L56.2031 34.3438V33.3125H62.2188V46.5938ZM57.5469 28.1875C57.5469 27.5104 57.7812 26.9427 58.25 26.4844C58.7292 26.026 59.2969 25.7969 59.9531 25.7969C60.6198 25.7969 61.1823 26.0312 61.6406 26.5C62.1094 26.9583 62.3438 27.5208 62.3438 28.1875C62.3438 28.8438 62.1146 29.4115 61.6562 29.8906C61.1979 30.3594 60.6302 30.5938 59.9531 30.5938C59.2865 30.5938 58.7188 30.3646 58.25 29.9062C57.7812 29.4375 57.5469 28.8646 57.5469 28.1875ZM71.5156 36.3594C72.6406 35.1094 73.6458 34.2135 74.5312 33.6719C75.4271 33.1198 76.2448 32.8438 76.9844 32.8438H77.8281V38.2031H76.9531L76.0312 36.2344C75.375 36.2344 74.6302 36.3802 73.7969 36.6719C72.9635 36.9531 72.2292 37.2865 71.5938 37.6719V46.5938L73.9531 46.9688V48H65.1719V46.9688L67.0781 46.5938V34.7188L65.1719 34.3438V33.3125H71.3438L71.5156 36.3594ZM85.6562 32.9531C87.6458 32.9531 89.0833 33.4844 89.9688 34.5469C90.8646 35.6094 91.3125 37.2604 91.3125 39.5V40.7812H83.6094V41.0312C83.6094 42.5833 83.7344 43.6875 83.9844 44.3438C84.2344 45 84.6406 45.5 85.2031 45.8438C85.7656 46.1875 86.5365 46.3594 87.5156 46.3594C88.4323 46.3594 89.5885 46.2083 90.9844 45.9062V47.1094C90.4115 47.4531 89.6667 47.7396 88.75 47.9688C87.8438 48.1875 86.9583 48.2969 86.0938 48.2969C83.6875 48.2969 81.9062 47.6719 80.75 46.4219C79.6042 45.1615 79.0312 43.2135 79.0312 40.5781C79.0312 38.0156 79.5781 36.1042 80.6719 34.8438C81.776 33.5833 83.4375 32.9531 85.6562 32.9531ZM85.4844 34.5312C84.8594 34.5312 84.3906 34.8698 84.0781 35.5469C83.776 36.224 83.625 37.4219 83.625 39.1406H87.0312C87.0312 37.7448 86.9844 36.7656 86.8906 36.2031C86.7969 35.6302 86.6354 35.2083 86.4062 34.9375C86.1875 34.6667 85.8802 34.5312 85.4844 34.5312ZM94.6094 34.9375H92.3906V33.8594L94.6094 33.25V31.6719C94.6094 29.6719 95.1198 28.1406 96.1406 27.0781C97.1615 26.0052 98.625 25.4688 100.531 25.4688C101.562 25.4688 102.427 25.5677 103.125 25.7656V29.2656H102.125L101.672 27.5625C101.422 27.3125 101.094 27.1875 100.688 27.1875C99.6458 27.1875 99.125 28.5156 99.125 31.1719V33.3125H102.109V34.9375H99.125V46.5938L101.516 46.9688V48H93.0156V46.9688L94.6094 46.5938V34.9375ZM110.016 36.3594C111.141 35.1094 112.146 34.2135 113.031 33.6719C113.927 33.1198 114.745 32.8438 115.484 32.8438H116.328V38.2031H115.453L114.531 36.2344C113.875 36.2344 113.13 36.3802 112.297 36.6719C111.464 36.9531 110.729 37.2865 110.094 37.6719V46.5938L112.453 46.9688V48H103.672V46.9688L105.578 46.5938V34.7188L103.672 34.3438V33.3125H109.844L110.016 36.3594ZM125.562 32.9844C129.24 32.9844 131.078 34.3385 131.078 37.0469V46.5938L132.547 46.9688V48H127.141L126.797 46.875C125.984 47.4271 125.25 47.8021 124.594 48C123.938 48.2083 123.276 48.3125 122.609 48.3125C119.578 48.3125 118.062 46.8542 118.062 43.9375C118.062 42.8333 118.286 41.9531 118.734 41.2969C119.182 40.6302 119.828 40.1406 120.672 39.8281C121.516 39.5052 122.844 39.3229 124.656 39.2812L126.562 39.2344V37.0938C126.562 35.3229 125.839 34.4375 124.391 34.4375C123.516 34.4375 122.536 34.7083 121.453 35.25L120.859 37.0781H119.828V33.5312C121.401 33.2917 122.557 33.1406 123.297 33.0781C124.036 33.0156 124.792 32.9844 125.562 32.9844ZM126.562 40.625L125.25 40.6719C124.24 40.7135 123.536 40.9792 123.141 41.4688C122.755 41.9583 122.562 42.75 122.562 43.8438C122.562 44.7292 122.719 45.3802 123.031 45.7969C123.344 46.2135 123.75 46.4219 124.25 46.4219C124.958 46.4219 125.729 46.2396 126.562 45.875V40.625ZM139.812 34.5938L140.875 34.0469C142.333 33.2969 143.641 32.9219 144.797 32.9219C146.547 32.9219 147.714 33.5573 148.297 34.8281C150.432 33.5573 152.234 32.9219 153.703 32.9219C156.349 32.9219 157.672 34.3646 157.672 37.25V46.5938L159.141 46.9688V48H151.844V46.9688L153.156 46.5938V37.8594C153.156 36.9844 152.984 36.3021 152.641 35.8125C152.307 35.3229 151.797 35.0781 151.109 35.0781C150.339 35.0781 149.505 35.2969 148.609 35.7344C148.714 36.1719 148.766 36.6771 148.766 37.25V46.5938L150.234 46.9688V48H142.938V46.9688L144.25 46.5938V37.8594C144.25 36.9844 144.078 36.3021 143.734 35.8125C143.401 35.3229 142.891 35.0781 142.203 35.0781C141.516 35.0781 140.729 35.2812 139.844 35.6875V46.5938L141.188 46.9688V48H133.891V46.9688L135.328 46.5938V34.7188L133.891 34.3438V33.3125H139.594L139.812 34.5938ZM167.406 32.9531C169.396 32.9531 170.833 33.4844 171.719 34.5469C172.615 35.6094 173.062 37.2604 173.062 39.5V40.7812H165.359V41.0312C165.359 42.5833 165.484 43.6875 165.734 44.3438C165.984 45 166.391 45.5 166.953 45.8438C167.516 46.1875 168.286 46.3594 169.266 46.3594C170.182 46.3594 171.339 46.2083 172.734 45.9062V47.1094C172.161 47.4531 171.417 47.7396 170.5 47.9688C169.594 48.1875 168.708 48.2969 167.844 48.2969C165.438 48.2969 163.656 47.6719 162.5 46.4219C161.354 45.1615 160.781 43.2135 160.781 40.5781C160.781 38.0156 161.328 36.1042 162.422 34.8438C163.526 33.5833 165.188 32.9531 167.406 32.9531ZM167.234 34.5312C166.609 34.5312 166.141 34.8698 165.828 35.5469C165.526 36.224 165.375 37.4219 165.375 39.1406H168.781C168.781 37.7448 168.734 36.7656 168.641 36.2031C168.547 35.6302 168.385 35.2083 168.156 34.9375C167.938 34.6667 167.63 34.5312 167.234 34.5312ZM188.297 34.0625C189.411 33.3021 190.766 32.9219 192.359 32.9219C194.401 32.9219 195.917 33.5208 196.906 34.7188C197.906 35.9167 198.406 37.8073 198.406 40.3906C198.406 42.9531 197.828 44.9167 196.672 46.2812C195.516 47.6354 193.854 48.3125 191.688 48.3125C190.583 48.3125 189.469 48.1719 188.344 47.8906C188.406 48.5781 188.438 49.349 188.438 50.2031V53.4062L190.594 53.7812V54.8125H182.328V53.7812L183.922 53.4062V34.7188L182.312 34.3438V33.3125H188.266L188.297 34.0625ZM193.828 40.5C193.828 36.6042 192.922 34.6562 191.109 34.6562C190.141 34.6562 189.25 34.8542 188.438 35.25V46.3281C189.281 46.5469 190.161 46.6562 191.078 46.6562C192.911 46.6562 193.828 44.6042 193.828 40.5ZM208.25 32.9844C211.927 32.9844 213.766 34.3385 213.766 37.0469V46.5938L215.234 46.9688V48H209.828L209.484 46.875C208.672 47.4271 207.938 47.8021 207.281 48C206.625 48.2083 205.964 48.3125 205.297 48.3125C202.266 48.3125 200.75 46.8542 200.75 43.9375C200.75 42.8333 200.974 41.9531 201.422 41.2969C201.87 40.6302 202.516 40.1406 203.359 39.8281C204.203 39.5052 205.531 39.3229 207.344 39.2812L209.25 39.2344V37.0938C209.25 35.3229 208.526 34.4375 207.078 34.4375C206.203 34.4375 205.224 34.7083 204.141 35.25L203.547 37.0781H202.516V33.5312C204.089 33.2917 205.245 33.1406 205.984 33.0781C206.724 33.0156 207.479 32.9844 208.25 32.9844ZM209.25 40.625L207.938 40.6719C206.927 40.7135 206.224 40.9792 205.828 41.4688C205.443 41.9583 205.25 42.75 205.25 43.8438C205.25 44.7292 205.406 45.3802 205.719 45.7969C206.031 46.2135 206.438 46.4219 206.938 46.4219C207.646 46.4219 208.417 46.2396 209.25 45.875V40.625ZM222.562 48.3125C221.156 48.3125 220.068 47.9948 219.297 47.3594C218.536 46.724 218.156 45.8073 218.156 44.6094V34.9375H216.234V33.9219L218.5 33.3125L220.328 29.9844H222.672V33.3125H225.766V34.9375H222.672V44.3281C222.672 45.0052 222.812 45.5156 223.094 45.8594C223.375 46.2031 223.745 46.375 224.203 46.375C224.755 46.375 225.432 46.2917 226.234 46.125V47.4531C225.922 47.6719 225.385 47.8698 224.625 48.0469C223.875 48.224 223.188 48.3125 222.562 48.3125ZM233.219 48.3125C231.812 48.3125 230.724 47.9948 229.953 47.3594C229.193 46.724 228.812 45.8073 228.812 44.6094V34.9375H226.891V33.9219L229.156 33.3125L230.984 29.9844H233.328V33.3125H236.422V34.9375H233.328V44.3281C233.328 45.0052 233.469 45.5156 233.75 45.8594C234.031 46.2031 234.401 46.375 234.859 46.375C235.411 46.375 236.089 46.2917 236.891 46.125V47.4531C236.578 47.6719 236.042 47.8698 235.281 48.0469C234.531 48.224 233.844 48.3125 233.219 48.3125ZM244.75 32.9531C246.74 32.9531 248.177 33.4844 249.062 34.5469C249.958 35.6094 250.406 37.2604 250.406 39.5V40.7812H242.703V41.0312C242.703 42.5833 242.828 43.6875 243.078 44.3438C243.328 45 243.734 45.5 244.297 45.8438C244.859 46.1875 245.63 46.3594 246.609 46.3594C247.526 46.3594 248.682 46.2083 250.078 45.9062V47.1094C249.505 47.4531 248.76 47.7396 247.844 47.9688C246.938 48.1875 246.052 48.2969 245.188 48.2969C242.781 48.2969 241 47.6719 239.844 46.4219C238.698 45.1615 238.125 43.2135 238.125 40.5781C238.125 38.0156 238.672 36.1042 239.766 34.8438C240.87 33.5833 242.531 32.9531 244.75 32.9531ZM244.578 34.5312C243.953 34.5312 243.484 34.8698 243.172 35.5469C242.87 36.224 242.719 37.4219 242.719 39.1406H246.125C246.125 37.7448 246.078 36.7656 245.984 36.2031C245.891 35.6302 245.729 35.2083 245.5 34.9375C245.281 34.6667 244.974 34.5312 244.578 34.5312ZM258.453 36.3594C259.578 35.1094 260.583 34.2135 261.469 33.6719C262.365 33.1198 263.182 32.8438 263.922 32.8438H264.766V38.2031H263.891L262.969 36.2344C262.312 36.2344 261.568 36.3802 260.734 36.6719C259.901 36.9531 259.167 37.2865 258.531 37.6719V46.5938L260.891 46.9688V48H252.109V46.9688L254.016 46.5938V34.7188L252.109 34.3438V33.3125H258.281L258.453 36.3594ZM272.25 34.5938L273.312 34.0469C274.771 33.2969 276.083 32.9219 277.25 32.9219C279.958 32.9219 281.312 34.3646 281.312 37.25V46.5938L282.781 46.9688V48H275.484V46.9688L276.797 46.5938V37.8594C276.797 36.9844 276.609 36.3021 276.234 35.8125C275.87 35.3229 275.344 35.0781 274.656 35.0781C273.865 35.0781 273.073 35.2552 272.281 35.6094V46.5938L273.625 46.9688V48H266.328V46.9688L267.766 46.5938V34.7188L266.328 34.3438V33.3125H272.031L272.25 34.5938Z" fill="white"/>
<path d="M30.2 63.5H31.475V74H30.2V63.5ZM33.8018 62.3H35.0018V74H33.8018V62.3ZM37.2588 62.3H38.4588V74H37.2588V62.3ZM41.9158 71.3C41.9158 71.85 42.0408 72.275 42.2908 72.575C42.5408 72.875 42.9058 73.025 43.3858 73.025C43.7358 73.025 44.0408 72.955 44.3008 72.815C44.5708 72.665 44.7758 72.46 44.9158 72.2C45.0658 71.94 45.1408 71.64 45.1408 71.3V67.1H46.3408V74H45.1408V72.92C44.9108 73.33 44.6258 73.64 44.2858 73.85C43.9458 74.05 43.5458 74.15 43.0858 74.15C42.3658 74.15 41.7908 73.905 41.3608 73.415C40.9308 72.925 40.7158 72.27 40.7158 71.45V67.1H41.9158V71.3ZM48.8817 71.885C49.0217 72.095 49.1817 72.29 49.3617 72.47C49.5417 72.65 49.7467 72.795 49.9767 72.905C50.2167 73.005 50.4767 73.055 50.7567 73.055C51.0967 73.055 51.3617 72.98 51.5517 72.83C51.7517 72.67 51.8517 72.455 51.8517 72.185C51.8517 71.945 51.7717 71.745 51.6117 71.585C51.4617 71.415 51.2667 71.275 51.0267 71.165C50.7867 71.045 50.5317 70.935 50.2617 70.835C49.9617 70.715 49.6567 70.575 49.3467 70.415C49.0467 70.245 48.7917 70.03 48.5817 69.77C48.3817 69.5 48.2817 69.165 48.2817 68.765C48.2817 68.355 48.3867 68.015 48.5967 67.745C48.8167 67.475 49.0967 67.275 49.4367 67.145C49.7867 67.015 50.1467 66.95 50.5167 66.95C50.8867 66.95 51.2317 67.01 51.5517 67.13C51.8817 67.25 52.1717 67.41 52.4217 67.61C52.6717 67.81 52.8667 68.04 53.0067 68.3L52.0467 68.915C51.8567 68.655 51.6167 68.44 51.3267 68.27C51.0467 68.1 50.7267 68.015 50.3667 68.015C50.1167 68.015 49.9017 68.07 49.7217 68.18C49.5417 68.29 49.4517 68.46 49.4517 68.69C49.4517 68.87 49.5217 69.03 49.6617 69.17C49.8017 69.31 49.9817 69.435 50.2017 69.545C50.4217 69.655 50.6517 69.76 50.8917 69.86C51.2917 70.02 51.6567 70.195 51.9867 70.385C52.3167 70.565 52.5767 70.785 52.7667 71.045C52.9667 71.305 53.0667 71.64 53.0667 72.05C53.0667 72.65 52.8467 73.15 52.4067 73.55C51.9767 73.95 51.4067 74.15 50.6967 74.15C50.2367 74.15 49.8217 74.07 49.4517 73.91C49.0817 73.74 48.7667 73.525 48.5067 73.265C48.2567 73.005 48.0667 72.74 47.9367 72.47L48.8817 71.885ZM53.5965 67.1H57.0465V68.225H53.5965V67.1ZM54.7215 64.7H55.9215V74H54.7215V64.7ZM59.45 67.1V74H58.25V67.1H59.45ZM61.535 68.42C61.375 68.3 61.23 68.215 61.1 68.165C60.97 68.105 60.805 68.075 60.605 68.075C60.305 68.075 60.07 68.15 59.9 68.3C59.73 68.45 59.61 68.655 59.54 68.915C59.48 69.175 59.45 69.47 59.45 69.8H58.91C58.91 69.25 59.005 68.765 59.195 68.345C59.395 67.915 59.65 67.575 59.96 67.325C60.27 67.075 60.585 66.95 60.905 66.95C61.155 66.95 61.385 66.985 61.595 67.055C61.815 67.115 62.015 67.24 62.195 67.43L61.535 68.42ZM63.9316 71.87C63.9316 72.13 63.9916 72.355 64.1116 72.545C64.2416 72.735 64.4166 72.88 64.6366 72.98C64.8666 73.07 65.1266 73.115 65.4166 73.115C65.7866 73.115 66.1166 73.04 66.4066 72.89C66.7066 72.74 66.9416 72.53 67.1116 72.26C67.2916 71.98 67.3816 71.66 67.3816 71.3L67.6216 72.2C67.6216 72.64 67.4866 73.005 67.2166 73.295C66.9566 73.585 66.6316 73.8 66.2416 73.94C65.8616 74.08 65.4816 74.15 65.1016 74.15C64.6816 74.15 64.2866 74.065 63.9166 73.895C63.5566 73.715 63.2666 73.46 63.0466 73.13C62.8266 72.8 62.7166 72.4 62.7166 71.93C62.7166 71.26 62.9516 70.725 63.4216 70.325C63.9016 69.915 64.5666 69.71 65.4166 69.71C65.9166 69.71 66.3316 69.77 66.6616 69.89C67.0016 70 67.2716 70.13 67.4716 70.28C67.6716 70.42 67.8066 70.535 67.8766 70.625V71.33C67.5266 71.09 67.1666 70.92 66.7966 70.82C66.4266 70.71 66.0316 70.655 65.6116 70.655C65.2216 70.655 64.9016 70.705 64.6516 70.805C64.4116 70.905 64.2316 71.045 64.1116 71.225C63.9916 71.405 63.9316 71.62 63.9316 71.87ZM63.7516 68.69L63.1666 67.805C63.4266 67.615 63.7816 67.425 64.2316 67.235C64.6916 67.045 65.2416 66.95 65.8816 66.95C66.4216 66.95 66.8916 67.035 67.2916 67.205C67.7016 67.365 68.0166 67.6 68.2366 67.91C68.4666 68.22 68.5816 68.6 68.5816 69.05V74H67.3816V69.215C67.3816 68.975 67.3416 68.78 67.2616 68.63C67.1816 68.47 67.0666 68.345 66.9166 68.255C66.7766 68.165 66.6116 68.1 66.4216 68.06C66.2316 68.02 66.0316 68 65.8216 68C65.4816 68 65.1716 68.04 64.8916 68.12C64.6216 68.2 64.3916 68.295 64.2016 68.405C64.0116 68.515 63.8616 68.61 63.7516 68.69ZM69.5633 67.1H73.0133V68.225H69.5633V67.1ZM70.6883 64.7H71.8883V74H70.6883V64.7ZM73.6168 70.55C73.6168 69.85 73.7718 69.23 74.0818 68.69C74.4018 68.15 74.8318 67.725 75.3718 67.415C75.9118 67.105 76.5168 66.95 77.1868 66.95C77.8668 66.95 78.4718 67.105 79.0018 67.415C79.5418 67.725 79.9668 68.15 80.2768 68.69C80.5968 69.23 80.7568 69.85 80.7568 70.55C80.7568 71.24 80.5968 71.86 80.2768 72.41C79.9668 72.95 79.5418 73.375 79.0018 73.685C78.4718 73.995 77.8668 74.15 77.1868 74.15C76.5168 74.15 75.9118 73.995 75.3718 73.685C74.8318 73.375 74.4018 72.95 74.0818 72.41C73.7718 71.86 73.6168 71.24 73.6168 70.55ZM74.8318 70.55C74.8318 71.03 74.9318 71.455 75.1318 71.825C75.3418 72.195 75.6218 72.49 75.9718 72.71C76.3318 72.92 76.7368 73.025 77.1868 73.025C77.6368 73.025 78.0368 72.92 78.3868 72.71C78.7468 72.49 79.0268 72.195 79.2268 71.825C79.4368 71.455 79.5418 71.03 79.5418 70.55C79.5418 70.07 79.4368 69.645 79.2268 69.275C79.0268 68.895 78.7468 68.6 78.3868 68.39C78.0368 68.18 77.6368 68.075 77.1868 68.075C76.7368 68.075 76.3318 68.18 75.9718 68.39C75.6218 68.6 75.3418 68.895 75.1318 69.275C74.9318 69.645 74.8318 70.07 74.8318 70.55ZM83.6053 67.1V74H82.4053V67.1H83.6053ZM85.6903 68.42C85.5303 68.3 85.3853 68.215 85.2553 68.165C85.1253 68.105 84.9603 68.075 84.7603 68.075C84.4603 68.075 84.2253 68.15 84.0553 68.3C83.8853 68.45 83.7653 68.655 83.6953 68.915C83.6353 69.175 83.6053 69.47 83.6053 69.8H83.0653C83.0653 69.25 83.1603 68.765 83.3503 68.345C83.5503 67.915 83.8053 67.575 84.1153 67.325C84.4253 67.075 84.7403 66.95 85.0603 66.95C85.3103 66.95 85.5403 66.985 85.7503 67.055C85.9703 67.115 86.1703 67.24 86.3503 67.43L85.6903 68.42ZM90.9939 71V69.875H93.9939V71H90.9939ZM99.6904 63.5H100.965V70.55C100.965 71.27 101.16 71.85 101.55 72.29C101.94 72.73 102.51 72.95 103.26 72.95C104.01 72.95 104.58 72.73 104.97 72.29C105.36 71.85 105.555 71.27 105.555 70.55V63.5H106.83V70.55C106.83 71.07 106.745 71.55 106.575 71.99C106.415 72.43 106.175 72.81 105.855 73.13C105.545 73.45 105.17 73.7 104.73 73.88C104.29 74.06 103.8 74.15 103.26 74.15C102.72 74.15 102.23 74.06 101.79 73.88C101.35 73.7 100.97 73.45 100.65 73.13C100.34 72.81 100.1 72.43 99.9304 71.99C99.7704 71.55 99.6904 71.07 99.6904 70.55V63.5ZM109.365 71.885C109.505 72.095 109.665 72.29 109.845 72.47C110.025 72.65 110.23 72.795 110.46 72.905C110.7 73.005 110.96 73.055 111.24 73.055C111.58 73.055 111.845 72.98 112.035 72.83C112.235 72.67 112.335 72.455 112.335 72.185C112.335 71.945 112.255 71.745 112.095 71.585C111.945 71.415 111.75 71.275 111.51 71.165C111.27 71.045 111.015 70.935 110.745 70.835C110.445 70.715 110.14 70.575 109.83 70.415C109.53 70.245 109.275 70.03 109.065 69.77C108.865 69.5 108.765 69.165 108.765 68.765C108.765 68.355 108.87 68.015 109.08 67.745C109.3 67.475 109.58 67.275 109.92 67.145C110.27 67.015 110.63 66.95 111 66.95C111.37 66.95 111.715 67.01 112.035 67.13C112.365 67.25 112.655 67.41 112.905 67.61C113.155 67.81 113.35 68.04 113.49 68.3L112.53 68.915C112.34 68.655 112.1 68.44 111.81 68.27C111.53 68.1 111.21 68.015 110.85 68.015C110.6 68.015 110.385 68.07 110.205 68.18C110.025 68.29 109.935 68.46 109.935 68.69C109.935 68.87 110.005 69.03 110.145 69.17C110.285 69.31 110.465 69.435 110.685 69.545C110.905 69.655 111.135 69.76 111.375 69.86C111.775 70.02 112.14 70.195 112.47 70.385C112.8 70.565 113.06 70.785 113.25 71.045C113.45 71.305 113.55 71.64 113.55 72.05C113.55 72.65 113.33 73.15 112.89 73.55C112.46 73.95 111.89 74.15 111.18 74.15C110.72 74.15 110.305 74.07 109.935 73.91C109.565 73.74 109.25 73.525 108.99 73.265C108.74 73.005 108.55 72.74 108.42 72.47L109.365 71.885ZM117.8 74.15C117.16 74.15 116.59 74 116.09 73.7C115.6 73.39 115.215 72.965 114.935 72.425C114.665 71.885 114.53 71.26 114.53 70.55C114.53 69.83 114.67 69.2 114.95 68.66C115.24 68.12 115.64 67.7 116.15 67.4C116.67 67.1 117.27 66.95 117.95 66.95C118.63 66.95 119.21 67.095 119.69 67.385C120.18 67.665 120.555 68.07 120.815 68.6C121.075 69.13 121.205 69.76 121.205 70.49C121.205 70.56 121.2 70.635 121.19 70.715C121.19 70.785 121.19 70.83 121.19 70.85H115.295V69.83H120.245L119.765 70.52C119.795 70.47 119.825 70.395 119.855 70.295C119.885 70.185 119.9 70.095 119.9 70.025C119.9 69.615 119.815 69.26 119.645 68.96C119.485 68.66 119.26 68.425 118.97 68.255C118.68 68.085 118.34 68 117.95 68C117.49 68 117.095 68.1 116.765 68.3C116.445 68.49 116.195 68.77 116.015 69.14C115.845 69.5 115.755 69.945 115.745 70.475C115.745 71.015 115.83 71.475 116 71.855C116.17 72.235 116.42 72.525 116.75 72.725C117.08 72.925 117.48 73.025 117.95 73.025C118.42 73.025 118.835 72.925 119.195 72.725C119.555 72.515 119.86 72.2 120.11 71.78L121.085 72.395C120.725 72.975 120.27 73.415 119.72 73.715C119.18 74.005 118.54 74.15 117.8 74.15ZM128.025 62.3H129.225V74H128.025V62.3ZM122.25 70.55C122.25 69.8 122.405 69.16 122.715 68.63C123.025 68.09 123.44 67.675 123.96 67.385C124.48 67.095 125.05 66.95 125.67 66.95C126.25 66.95 126.755 67.095 127.185 67.385C127.615 67.675 127.95 68.09 128.19 68.63C128.44 69.16 128.565 69.8 128.565 70.55C128.565 71.29 128.44 71.93 128.19 72.47C127.95 73.01 127.615 73.425 127.185 73.715C126.755 74.005 126.25 74.15 125.67 74.15C125.05 74.15 124.48 74.005 123.96 73.715C123.44 73.425 123.025 73.01 122.715 72.47C122.405 71.93 122.25 71.29 122.25 70.55ZM123.465 70.55C123.465 71.08 123.57 71.53 123.78 71.9C124 72.27 124.29 72.55 124.65 72.74C125.01 72.93 125.4 73.025 125.82 73.025C126.17 73.025 126.515 72.93 126.855 72.74C127.195 72.55 127.475 72.27 127.695 71.9C127.915 71.53 128.025 71.08 128.025 70.55C128.025 70.02 127.915 69.57 127.695 69.2C127.475 68.83 127.195 68.55 126.855 68.36C126.515 68.17 126.17 68.075 125.82 68.075C125.4 68.075 125.01 68.17 124.65 68.36C124.29 68.55 124 68.83 123.78 69.2C123.57 69.57 123.465 70.02 123.465 70.55ZM135.901 64.25C135.901 64.02 135.981 63.825 136.141 63.665C136.311 63.505 136.506 63.425 136.726 63.425C136.956 63.425 137.151 63.505 137.311 63.665C137.471 63.825 137.551 64.02 137.551 64.25C137.551 64.47 137.471 64.665 137.311 64.835C137.151 64.995 136.956 65.075 136.726 65.075C136.506 65.075 136.311 64.995 136.141 64.835C135.981 64.665 135.901 64.47 135.901 64.25ZM136.126 67.1H137.326V74H136.126V67.1ZM144.223 69.8C144.223 69.23 144.098 68.8 143.848 68.51C143.598 68.22 143.233 68.075 142.753 68.075C142.403 68.075 142.093 68.15 141.823 68.3C141.563 68.44 141.358 68.64 141.208 68.9C141.068 69.16 140.998 69.46 140.998 69.8V74H139.798V67.1H140.998V68.18C141.228 67.76 141.513 67.45 141.853 67.25C142.203 67.05 142.603 66.95 143.053 66.95C143.783 66.95 144.358 67.195 144.778 67.685C145.208 68.165 145.423 68.82 145.423 69.65V74H144.223V69.8ZM153.301 62.3V74H152.101V62.3H153.301ZM159.076 70.55C159.076 71.29 158.921 71.93 158.611 72.47C158.301 73.01 157.886 73.425 157.366 73.715C156.856 74.005 156.286 74.15 155.656 74.15C155.086 74.15 154.581 74.005 154.141 73.715C153.711 73.425 153.371 73.01 153.121 72.47C152.881 71.93 152.761 71.29 152.761 70.55C152.761 69.8 152.881 69.16 153.121 68.63C153.371 68.09 153.711 67.675 154.141 67.385C154.581 67.095 155.086 66.95 155.656 66.95C156.286 66.95 156.856 67.095 157.366 67.385C157.886 67.675 158.301 68.09 158.611 68.63C158.921 69.16 159.076 69.8 159.076 70.55ZM157.861 70.55C157.861 70.02 157.751 69.57 157.531 69.2C157.321 68.83 157.036 68.55 156.676 68.36C156.326 68.17 155.936 68.075 155.506 68.075C155.156 68.075 154.811 68.17 154.471 68.36C154.131 68.55 153.851 68.83 153.631 69.2C153.411 69.57 153.301 70.02 153.301 70.55C153.301 71.08 153.411 71.53 153.631 71.9C153.851 72.27 154.131 72.55 154.471 72.74C154.811 72.93 155.156 73.025 155.506 73.025C155.936 73.025 156.326 72.93 156.676 72.74C157.036 72.55 157.321 72.27 157.531 71.9C157.751 71.53 157.861 71.08 157.861 70.55ZM161.27 71.87C161.27 72.13 161.33 72.355 161.45 72.545C161.58 72.735 161.755 72.88 161.975 72.98C162.205 73.07 162.465 73.115 162.755 73.115C163.125 73.115 163.455 73.04 163.745 72.89C164.045 72.74 164.28 72.53 164.45 72.26C164.63 71.98 164.72 71.66 164.72 71.3L164.96 72.2C164.96 72.64 164.825 73.005 164.555 73.295C164.295 73.585 163.97 73.8 163.58 73.94C163.2 74.08 162.82 74.15 162.44 74.15C162.02 74.15 161.625 74.065 161.255 73.895C160.895 73.715 160.605 73.46 160.385 73.13C160.165 72.8 160.055 72.4 160.055 71.93C160.055 71.26 160.29 70.725 160.76 70.325C161.24 69.915 161.905 69.71 162.755 69.71C163.255 69.71 163.67 69.77 164 69.89C164.34 70 164.61 70.13 164.81 70.28C165.01 70.42 165.145 70.535 165.215 70.625V71.33C164.865 71.09 164.505 70.92 164.135 70.82C163.765 70.71 163.37 70.655 162.95 70.655C162.56 70.655 162.24 70.705 161.99 70.805C161.75 70.905 161.57 71.045 161.45 71.225C161.33 71.405 161.27 71.62 161.27 71.87ZM161.09 68.69L160.505 67.805C160.765 67.615 161.12 67.425 161.57 67.235C162.03 67.045 162.58 66.95 163.22 66.95C163.76 66.95 164.23 67.035 164.63 67.205C165.04 67.365 165.355 67.6 165.575 67.91C165.805 68.22 165.92 68.6 165.92 69.05V74H164.72V69.215C164.72 68.975 164.68 68.78 164.6 68.63C164.52 68.47 164.405 68.345 164.255 68.255C164.115 68.165 163.95 68.1 163.76 68.06C163.57 68.02 163.37 68 163.16 68C162.82 68 162.51 68.04 162.23 68.12C161.96 68.2 161.73 68.295 161.54 68.405C161.35 68.515 161.2 68.61 161.09 68.69ZM168.492 70.55C168.492 71.03 168.592 71.455 168.792 71.825C169.002 72.195 169.282 72.49 169.632 72.71C169.992 72.92 170.397 73.025 170.847 73.025C171.217 73.025 171.562 72.97 171.882 72.86C172.212 72.74 172.497 72.585 172.737 72.395C172.977 72.195 173.147 71.985 173.247 71.765V73.265C173.007 73.545 172.662 73.765 172.212 73.925C171.772 74.075 171.317 74.15 170.847 74.15C170.177 74.15 169.572 73.995 169.032 73.685C168.492 73.375 168.062 72.95 167.742 72.41C167.432 71.86 167.277 71.24 167.277 70.55C167.277 69.85 167.432 69.23 167.742 68.69C168.062 68.15 168.492 67.725 169.032 67.415C169.572 67.105 170.177 66.95 170.847 66.95C171.317 66.95 171.772 67.03 172.212 67.19C172.662 67.34 173.007 67.555 173.247 67.835V69.335C173.147 69.105 172.977 68.895 172.737 68.705C172.497 68.515 172.212 68.365 171.882 68.255C171.562 68.135 171.217 68.075 170.847 68.075C170.397 68.075 169.992 68.18 169.632 68.39C169.282 68.6 169.002 68.895 168.792 69.275C168.592 69.645 168.492 70.07 168.492 70.55ZM175.04 62.3H176.24V74H175.04V62.3ZM178.79 67.1H180.29L177.29 69.95L180.59 74H179.09L175.79 69.95L178.79 67.1ZM181.037 74.45H182.252C182.252 74.78 182.342 75.085 182.522 75.365C182.702 75.655 182.957 75.885 183.287 76.055C183.617 76.235 184.007 76.325 184.457 76.325C184.807 76.325 185.152 76.24 185.492 76.07C185.832 75.9 186.112 75.63 186.332 75.26C186.562 74.9 186.677 74.43 186.677 73.85V67.1H187.877V73.85C187.877 74.64 187.712 75.3 187.382 75.83C187.052 76.37 186.627 76.775 186.107 77.045C185.587 77.315 185.037 77.45 184.457 77.45C183.787 77.45 183.192 77.325 182.672 77.075C182.162 76.825 181.762 76.47 181.472 76.01C181.182 75.56 181.037 75.04 181.037 74.45ZM180.902 70.55C180.902 69.8 181.057 69.16 181.367 68.63C181.677 68.09 182.092 67.675 182.612 67.385C183.132 67.095 183.702 66.95 184.322 66.95C184.902 66.95 185.407 67.095 185.837 67.385C186.267 67.675 186.602 68.09 186.842 68.63C187.092 69.16 187.217 69.8 187.217 70.55C187.217 71.29 187.092 71.93 186.842 72.47C186.602 73.01 186.267 73.425 185.837 73.715C185.407 74.005 184.902 74.15 184.322 74.15C183.702 74.15 183.132 74.005 182.612 73.715C182.092 73.425 181.677 73.01 181.367 72.47C181.057 71.93 180.902 71.29 180.902 70.55ZM182.117 70.55C182.117 71.08 182.222 71.53 182.432 71.9C182.652 72.27 182.942 72.55 183.302 72.74C183.662 72.93 184.052 73.025 184.472 73.025C184.822 73.025 185.167 72.93 185.507 72.74C185.847 72.55 186.127 72.27 186.347 71.9C186.567 71.53 186.677 71.08 186.677 70.55C186.677 70.15 186.612 69.8 186.482 69.5C186.352 69.19 186.177 68.93 185.957 68.72C185.747 68.51 185.512 68.35 185.252 68.24C184.992 68.13 184.732 68.075 184.472 68.075C184.052 68.075 183.662 68.17 183.302 68.36C182.942 68.55 182.652 68.83 182.432 69.2C182.222 69.57 182.117 70.02 182.117 70.55ZM191.257 67.1V74H190.057V67.1H191.257ZM193.342 68.42C193.182 68.3 193.037 68.215 192.907 68.165C192.777 68.105 192.612 68.075 192.412 68.075C192.112 68.075 191.877 68.15 191.707 68.3C191.537 68.45 191.417 68.655 191.347 68.915C191.287 69.175 191.257 69.47 191.257 69.8H190.717C190.717 69.25 190.812 68.765 191.002 68.345C191.202 67.915 191.457 67.575 191.767 67.325C192.077 67.075 192.392 66.95 192.712 66.95C192.962 66.95 193.192 66.985 193.402 67.055C193.622 67.115 193.822 67.24 194.002 67.43L193.342 68.42ZM194.379 70.55C194.379 69.85 194.534 69.23 194.844 68.69C195.164 68.15 195.594 67.725 196.134 67.415C196.674 67.105 197.279 66.95 197.949 66.95C198.629 66.95 199.234 67.105 199.764 67.415C200.304 67.725 200.729 68.15 201.039 68.69C201.359 69.23 201.519 69.85 201.519 70.55C201.519 71.24 201.359 71.86 201.039 72.41C200.729 72.95 200.304 73.375 199.764 73.685C199.234 73.995 198.629 74.15 197.949 74.15C197.279 74.15 196.674 73.995 196.134 73.685C195.594 73.375 195.164 72.95 194.844 72.41C194.534 71.86 194.379 71.24 194.379 70.55ZM195.594 70.55C195.594 71.03 195.694 71.455 195.894 71.825C196.104 72.195 196.384 72.49 196.734 72.71C197.094 72.92 197.499 73.025 197.949 73.025C198.399 73.025 198.799 72.92 199.149 72.71C199.509 72.49 199.789 72.195 199.989 71.825C200.199 71.455 200.304 71.03 200.304 70.55C200.304 70.07 200.199 69.645 199.989 69.275C199.789 68.895 199.509 68.6 199.149 68.39C198.799 68.18 198.399 68.075 197.949 68.075C197.499 68.075 197.094 68.18 196.734 68.39C196.384 68.6 196.104 68.895 195.894 69.275C195.694 69.645 195.594 70.07 195.594 70.55ZM204.367 71.3C204.367 71.85 204.492 72.275 204.742 72.575C204.992 72.875 205.357 73.025 205.837 73.025C206.187 73.025 206.492 72.955 206.752 72.815C207.022 72.665 207.227 72.46 207.367 72.2C207.517 71.94 207.592 71.64 207.592 71.3V67.1H208.792V74H207.592V72.92C207.362 73.33 207.077 73.64 206.737 73.85C206.397 74.05 205.997 74.15 205.537 74.15C204.817 74.15 204.242 73.905 203.812 73.415C203.382 72.925 203.167 72.27 203.167 71.45V67.1H204.367V71.3ZM215.473 69.8C215.473 69.23 215.348 68.8 215.098 68.51C214.848 68.22 214.483 68.075 214.003 68.075C213.653 68.075 213.343 68.15 213.073 68.3C212.813 68.44 212.608 68.64 212.458 68.9C212.318 69.16 212.248 69.46 212.248 69.8V74H211.048V67.1H212.248V68.18C212.478 67.76 212.763 67.45 213.103 67.25C213.453 67.05 213.853 66.95 214.303 66.95C215.033 66.95 215.608 67.195 216.028 67.685C216.458 68.165 216.673 68.82 216.673 69.65V74H215.473V69.8ZM224.104 62.3H225.304V74H224.104V62.3ZM218.329 70.55C218.329 69.8 218.484 69.16 218.794 68.63C219.104 68.09 219.519 67.675 220.039 67.385C220.559 67.095 221.129 66.95 221.749 66.95C222.329 66.95 222.834 67.095 223.264 67.385C223.694 67.675 224.029 68.09 224.269 68.63C224.519 69.16 224.644 69.8 224.644 70.55C224.644 71.29 224.519 71.93 224.269 72.47C224.029 73.01 223.694 73.425 223.264 73.715C222.834 74.005 222.329 74.15 221.749 74.15C221.129 74.15 220.559 74.005 220.039 73.715C219.519 73.425 219.104 73.01 218.794 72.47C218.484 71.93 218.329 71.29 218.329 70.55ZM219.544 70.55C219.544 71.08 219.649 71.53 219.859 71.9C220.079 72.27 220.369 72.55 220.729 72.74C221.089 72.93 221.479 73.025 221.899 73.025C222.249 73.025 222.594 72.93 222.934 72.74C223.274 72.55 223.554 72.27 223.774 71.9C223.994 71.53 224.104 71.08 224.104 70.55C224.104 70.02 223.994 69.57 223.774 69.2C223.554 68.83 223.274 68.55 222.934 68.36C222.594 68.17 222.249 68.075 221.899 68.075C221.479 68.075 221.089 68.17 220.729 68.36C220.369 68.55 220.079 68.83 219.859 69.2C219.649 69.57 219.544 70.02 219.544 70.55ZM227.768 71.885C227.908 72.095 228.068 72.29 228.248 72.47C228.428 72.65 228.633 72.795 228.863 72.905C229.103 73.005 229.363 73.055 229.643 73.055C229.983 73.055 230.248 72.98 230.438 72.83C230.638 72.67 230.738 72.455 230.738 72.185C230.738 71.945 230.658 71.745 230.498 71.585C230.348 71.415 230.153 71.275 229.913 71.165C229.673 71.045 229.418 70.935 229.148 70.835C228.848 70.715 228.543 70.575 228.233 70.415C227.933 70.245 227.678 70.03 227.468 69.77C227.268 69.5 227.168 69.165 227.168 68.765C227.168 68.355 227.273 68.015 227.483 67.745C227.703 67.475 227.983 67.275 228.323 67.145C228.673 67.015 229.033 66.95 229.403 66.95C229.773 66.95 230.118 67.01 230.438 67.13C230.768 67.25 231.058 67.41 231.308 67.61C231.558 67.81 231.753 68.04 231.893 68.3L230.933 68.915C230.743 68.655 230.503 68.44 230.213 68.27C229.933 68.1 229.613 68.015 229.253 68.015C229.003 68.015 228.788 68.07 228.608 68.18C228.428 68.29 228.338 68.46 228.338 68.69C228.338 68.87 228.408 69.03 228.548 69.17C228.688 69.31 228.868 69.435 229.088 69.545C229.308 69.655 229.538 69.76 229.778 69.86C230.178 70.02 230.543 70.195 230.873 70.385C231.203 70.565 231.463 70.785 231.653 71.045C231.853 71.305 231.953 71.64 231.953 72.05C231.953 72.65 231.733 73.15 231.293 73.55C230.863 73.95 230.293 74.15 229.583 74.15C229.123 74.15 228.708 74.07 228.338 73.91C227.968 73.74 227.653 73.525 227.393 73.265C227.143 73.005 226.953 72.74 226.823 72.47L227.768 71.885Z" fill="white"/>
</g>
<defs>
<clipPath id="clip0_1_205">
<rect width="600" height="400" fill="white"/>
</clipPath>
</defs>
</svg>
